<svg width="25" height="15" viewBox="0 0 25 15" fill="none" xmlns="http://www.w3.org/2000/svg">
<path d="M23 13C22.9238 12.1757 23.0148 11.3284 22.9792 10.5011C22.9216 9.16016 22.7306 7.82367 22.6985 6.48197C21.9167 7.14916 21.2248 7.9134 20.4302 8.56731C19.533 9.30572 18.5109 10.0231 17.75 10.8893C17.6049 8.89695 17.4638 6.90342 17.331 4.91005C15.7106 6.23324 14.0204 7.61959 12.5328 9.06566L11.8085 3.1427C9.96487 4.36646 8.35447 5.91211 6.49831 7.13961C6.46068 5.44079 6.25128 3.68717 6.30494 2C4.79741 3.05312 3.37085 4.42305 2 5.62606" stroke="#8239F8" stroke-width="3.57" stroke-miterlimit="1.5" stroke-linecap="round" stroke-linejoin="round"/>
</svg>
