<svg width="63" height="62" viewBox="0 0 63 62" fill="none" xmlns="http://www.w3.org/2000/svg">
<path d="M47 48.7205H45.0367C42.97 48.7205 41.0067 49.5213 39.56 50.968L35.1425 55.334C33.1275 57.3232 29.8467 57.3232 27.8317 55.334L23.4142 50.968C21.9675 49.5213 19.9783 48.7205 17.9375 48.7205H16C11.7117 48.7205 8.25 45.2848 8.25 41.0481V12.8638C8.25 8.62716 11.7117 5.19141 16 5.19141H47C51.2883 5.19141 54.75 8.62716 54.75 12.8638V41.0481C54.75 45.2589 51.2883 48.7205 47 48.7205Z" stroke="#626E94" stroke-width="4" stroke-miterlimit="10" stroke-linecap="round" stroke-linejoin="round"/>
<path d="M18.583 23.6629C18.583 21.2604 20.5463 19.2969 22.9488 19.2969C25.3513 19.2969 27.3147 21.2604 27.3147 23.6629C27.3147 28.5195 20.4172 29.0362 18.893 33.6604C18.583 34.6162 19.3838 35.572 20.3913 35.572H27.3147" stroke="#626E94" stroke-width="4" stroke-linecap="round" stroke-linejoin="round"/>
<path d="M41.9365 35.5466V20.7958C41.9365 20.1242 41.4974 19.5299 40.8515 19.349C40.2057 19.1682 39.5082 19.4265 39.1466 19.9949C37.2866 22.9915 35.2715 26.4016 33.5149 29.3982C33.2307 29.8891 33.2307 30.5349 33.5149 31.0257C33.799 31.5166 34.3416 31.8264 34.9357 31.8264H44.4166" stroke="#626E94" stroke-width="4" stroke-linecap="round" stroke-linejoin="round"/>
</svg>
