<svg width="62" height="62" viewBox="0 0 62 62" fill="none" xmlns="http://www.w3.org/2000/svg">
<g clip-path="url(#clip0_3042_30604)">
<path d="M18.0833 28.4173V49.084C18.0833 49.7691 17.8112 50.4262 17.3267 50.9107C16.8422 51.3952 16.1851 51.6673 15.5 51.6673H10.3333C9.64819 51.6673 8.99111 51.3952 8.50664 50.9107C8.02217 50.4262 7.75 49.7691 7.75 49.084V31.0007C7.75 30.3155 8.02217 29.6584 8.50664 29.174C8.99111 28.6895 9.64819 28.4173 10.3333 28.4173H18.0833ZM18.0833 28.4173C20.8239 28.4173 23.4522 27.3286 25.3901 25.3908C27.328 23.4529 28.4167 20.8246 28.4167 18.084V15.5007C28.4167 14.1304 28.961 12.8162 29.93 11.8473C30.8989 10.8783 32.213 10.334 33.5833 10.334C34.9536 10.334 36.2678 10.8783 37.2367 11.8473C38.2057 12.8162 38.75 14.1304 38.75 15.5007V28.4173H46.5C47.8703 28.4173 49.1844 28.9617 50.1534 29.9306C51.1223 30.8995 51.6667 32.2137 51.6667 33.584L49.0833 46.5007C48.7118 48.0855 48.007 49.4463 47.0752 50.3781C46.1433 51.31 45.0348 51.7624 43.9167 51.6673H25.8333C23.7779 51.6673 21.8067 50.8508 20.3533 49.3974C18.8998 47.944 18.0833 45.9727 18.0833 43.9173" stroke="#626E94" stroke-width="4" stroke-linecap="round" stroke-linejoin="round"/>
</g>
<defs>
<clipPath id="clip0_3042_30604">
<rect width="62" height="62" fill="white"/>
</clipPath>
</defs>
</svg>
