<svg width="63" height="62" viewBox="0 0 63 62" fill="none" xmlns="http://www.w3.org/2000/svg">
<path d="M48.2139 43.4769L49.2214 51.6402C49.4798 53.7843 47.1806 55.2826 45.3464 54.1718L34.5223 47.7393C33.3339 47.7393 32.1715 47.6619 31.0348 47.5069C32.9465 45.2594 34.0831 42.4176 34.0831 39.3435C34.0831 32.0068 27.7281 26.0653 19.8748 26.0653C16.8781 26.0653 14.1139 26.9177 11.8148 28.416C11.7373 27.7702 11.7114 27.1243 11.7114 26.4527C11.7114 14.6985 21.9156 5.16602 34.5223 5.16602C47.1289 5.16602 57.3331 14.6985 57.3331 26.4527C57.3331 33.4277 53.7423 39.6019 48.2139 43.4769Z" stroke="#626E94" stroke-width="4" stroke-linecap="round" stroke-linejoin="round"/>
<path d="M34.0832 39.3446C34.0832 42.4188 32.9465 45.2605 31.0349 47.508C28.4774 50.608 24.4215 52.5971 19.8748 52.5971L13.1323 56.6013C11.9957 57.2988 10.549 56.343 10.704 55.0255L11.3498 49.9364C7.88816 47.5339 5.6665 43.6846 5.6665 39.3446C5.6665 34.798 8.09485 30.7938 11.8148 28.4172C14.114 26.9188 16.8782 26.0664 19.8748 26.0664C27.7282 26.0664 34.0832 32.008 34.0832 39.3446Z" stroke="#626E94" stroke-width="4" stroke-linecap="round" stroke-linejoin="round"/>
</svg>
