<svg width="55" height="58" viewBox="0 0 55 58" fill="none" xmlns="http://www.w3.org/2000/svg">
<path d="M33.6258 24.2249C33.6258 31.3206 28.1437 37.0728 21.3813 37.0728C18.9717 37.0728 16.7247 36.3425 14.8304 35.0814L9.13672 37.0728L11.0346 31.0986C9.8327 29.1109 9.13672 26.7532 9.13672 24.2249C9.13672 17.1292 14.6188 11.377 21.3813 11.377C28.1437 11.377 33.6258 17.1292 33.6258 24.2249Z" fill="#3959F8"/>
<path opacity="0.2" d="M27.5033 38.1438C27.5033 43.4656 31.6149 47.7797 36.6867 47.7797C38.4939 47.7797 40.1791 47.232 41.5999 46.2862L45.8701 47.7797L44.4467 43.299C45.3481 41.8083 45.8701 40.04 45.8701 38.1438C45.8701 32.822 41.7586 28.5078 36.6867 28.5078C31.6149 28.5078 27.5033 32.822 27.5033 38.1438Z" fill="#3959F8"/>
<path d="M33.6258 24.2249C33.6258 31.3206 28.1437 37.0728 21.3813 37.0728C18.9717 37.0728 16.7247 36.3425 14.8304 35.0814L9.13672 37.0728L11.0346 31.0986C9.8327 29.1109 9.13672 26.7532 9.13672 24.2249C9.13672 17.1292 14.6188 11.377 21.3813 11.377C28.1437 11.377 33.6258 17.1292 33.6258 24.2249Z" stroke="#050B28" stroke-width="2.55694" stroke-linecap="round" stroke-linejoin="round"/>
<path d="M22.0703 37.0517C23.7452 42.0534 28.2863 45.6392 33.6256 45.6392C36.0351 45.6392 38.2822 44.909 40.1764 43.6478L45.8701 45.6392L43.9722 39.6649L44.2621 39.1604C45.2854 37.2832 45.8701 35.1089 45.8701 32.7913C45.8701 25.6956 40.388 19.9434 33.6256 19.9434L33.1665 19.9522L32.9361 19.9651" stroke="#050B28" stroke-width="2.55694" stroke-linecap="round" stroke-linejoin="round"/>
</svg>
