<svg width="49" height="35" viewBox="0 0 49 35" fill="none" xmlns="http://www.w3.org/2000/svg">
<path opacity="0.1" d="M7.5926 31.4858C6.29416 31.4858 5.10141 31.1688 4.01434 30.5347C2.92728 29.9005 2.06669 29.0399 1.43257 27.9529C0.798444 26.8658 0.481383 25.6731 0.481383 24.3746C0.481383 23.0762 0.798444 21.8834 1.43257 20.7964C2.06669 19.7093 2.92728 18.8487 4.01434 18.2146C5.10141 17.5805 6.29416 17.2634 7.5926 17.2634C8.89104 17.2634 10.0838 17.5805 11.1709 18.2146C12.2881 18.8487 13.1638 19.7093 13.7979 20.7964C14.4321 21.8834 14.7491 23.0762 14.7491 24.3746C14.7491 25.6731 14.4321 26.8658 13.7979 27.9529C13.1638 29.0399 12.2881 29.9005 11.1709 30.5347C10.0838 31.1688 8.89104 31.4858 7.5926 31.4858ZM7.5926 26.5035C8.19653 26.5035 8.69476 26.2921 9.08731 25.8693C9.51006 25.4466 9.72144 24.9483 9.72144 24.3746C9.72144 23.7707 9.51006 23.2725 9.08731 22.8799C8.69476 22.4572 8.19653 22.2458 7.5926 22.2458C7.01887 22.2458 6.52063 22.4572 6.09789 22.8799C5.70533 23.2725 5.50906 23.7707 5.50906 24.3746C5.50906 24.9785 5.70533 25.4919 6.09789 25.9146C6.52063 26.3072 7.01887 26.5035 7.5926 26.5035ZM33.4744 32.2105C32.176 33.509 30.4548 34.1582 28.3109 34.1582H25.6385C24.3401 34.1582 23.1473 33.8562 22.0603 33.2523C20.9732 32.6182 20.1126 31.7576 19.4785 30.6705C18.8746 29.5835 18.5726 28.3907 18.5726 27.0923V17.0822C18.5726 15.0289 19.0859 13.1265 20.1126 11.3751L23.2832 6.07569L23.8267 0.323305L39.7704 3.04097C41.25 3.28254 42.5182 3.90156 43.5751 4.89804C44.632 5.89451 45.2812 7.11746 45.5227 8.56688L48.5122 25.5976C48.6028 26.0807 48.6481 26.5487 48.6481 27.0017C48.6481 28.6625 48.0441 30.1874 46.8363 31.5764L43.9374 34.8829L33.4744 32.2105ZM39.2268 13.5493C39.1966 13.3077 39.0758 12.6283 38.8645 11.511L29.4432 9.88042L26.2726 15.2704C26.0009 15.7234 25.8046 16.1461 25.6838 16.5387C25.5932 16.901 25.5479 17.3238 25.5479 17.8069V25.0993H28.4015C28.9752 25.0993 29.4281 24.9332 29.7603 24.6011C30.1227 24.2387 30.3038 23.8009 30.3038 23.2876V18.4863L36.645 18.3958V22.3817C36.645 23.197 36.5545 23.9066 36.3733 24.5105L41.4463 25.7787L39.2268 13.5493Z" fill="#050B28"/>
</svg>
