<svg width="55" height="58" viewBox="0 0 55 58" fill="none" xmlns="http://www.w3.org/2000/svg">
<path opacity="0.58" d="M54.3124 0.808594L0.880859 0.808594L0.880859 57.1737H54.3124V0.808594Z" fill="white"/>
<path d="M38.7277 26.6431C37.5032 26.6431 36.5014 25.5863 36.5014 24.2946V21.946C36.5014 17.2489 34.2751 14.9004 29.8225 14.9004H20.9172C16.4646 14.9004 14.2383 17.2489 14.2383 21.946V36.0373C14.2383 40.7344 16.4646 43.0829 20.9172 43.0829H34.2751C38.7277 43.0829 40.954 40.7344 40.954 36.0373V28.9917C40.954 27.7 39.9522 26.6431 38.7277 26.6431ZM23.1435 22.5332H27.5962C28.5089 22.5332 29.2659 23.3317 29.2659 24.2946C29.2659 25.2575 28.5089 26.056 27.5962 26.056H23.1435C22.2307 26.056 21.4738 25.2575 21.4738 24.2946C21.4738 23.3317 22.2307 22.5332 23.1435 22.5332ZM32.0488 35.4502H23.1435C22.2307 35.4502 21.4738 34.6517 21.4738 33.6888C21.4738 32.7259 22.2307 31.9274 23.1435 31.9274H32.0488C32.9616 31.9274 33.7185 32.7259 33.7185 33.6888C33.7185 34.6517 32.9616 35.4502 32.0488 35.4502Z" fill="#F916F9"/>
</svg>
