<svg width="42" height="34" viewBox="0 0 42 34" fill="none" xmlns="http://www.w3.org/2000/svg">
<path opacity="0.1" d="M7.29746 31.1206C5.99902 31.1206 4.80627 30.8035 3.71921 30.1694C2.63214 29.5353 1.77155 28.6747 1.13743 27.5876C0.503307 26.5006 0.186246 25.3078 0.186246 24.0094C0.186246 22.7109 0.503307 21.5182 1.13743 20.4311C1.77155 19.3441 2.63214 18.4835 3.71921 17.8493C4.80627 17.2152 5.99902 16.8982 7.29746 16.8982C8.5959 16.8982 9.78865 17.2152 10.8757 17.8493C11.993 18.4835 12.8687 19.3441 13.5028 20.4311C14.1369 21.5182 14.454 22.7109 14.454 24.0094C14.454 25.3078 14.1369 26.5006 13.5028 27.5876C12.8687 28.6747 11.993 29.5353 10.8757 30.1694C9.78865 30.8035 8.5959 31.1206 7.29746 31.1206ZM7.29746 26.1382C7.90139 26.1382 8.39963 25.9268 8.79218 25.5041C9.21492 25.0814 9.4263 24.5831 9.4263 24.0094C9.4263 23.4055 9.21492 22.9072 8.79218 22.5147C8.39963 22.0919 7.90139 21.8805 7.29746 21.8805C6.72373 21.8805 6.2255 22.0919 5.80275 22.5147C5.4102 22.9072 5.21392 23.4055 5.21392 24.0094C5.21392 24.6133 5.4102 25.1266 5.80275 25.5494C6.2255 25.9419 6.72373 26.1382 7.29746 26.1382ZM18.2775 4.5781L24.8904 1.81514L26.7475 12.6858L27.2457 15.5393H32.4546C33.3303 15.5393 34.0248 15.3129 34.5381 14.8599L32.0922 3.26456L38.5693 0.229836L41.5135 14.2258C41.6644 14.9807 41.7399 15.645 41.7399 16.2188C41.7399 17.6984 41.3927 19.027 40.6982 20.2047C40.0339 21.3521 39.0978 22.258 37.8899 22.9223C36.6821 23.5564 35.293 23.8735 33.7228 23.8735H30.0993C29.4954 23.8735 28.7707 23.8433 27.9252 23.7829V32.1624L20.9045 33.9741L20.9498 20.3858L18.2775 4.5781Z" fill="#050B28"/>
</svg>
