<svg width="54" height="34" viewBox="0 0 54 34" fill="none" xmlns="http://www.w3.org/2000/svg">
<path opacity="0.1" d="M7.24153 31.1206C5.94309 31.1206 4.75034 30.8035 3.66327 30.1694C2.57621 29.5353 1.71561 28.6747 1.08149 27.5876C0.44737 26.5006 0.130309 25.3078 0.130309 24.0094C0.130309 22.7109 0.44737 21.5182 1.08149 20.4311C1.71561 19.3441 2.57621 18.4835 3.66327 17.8493C4.75034 17.2152 5.94309 16.8982 7.24153 16.8982C8.53996 16.8982 9.73272 17.2152 10.8198 17.8493C11.937 18.4835 12.8127 19.3441 13.4469 20.4311C14.081 21.5182 14.398 22.7109 14.398 24.0094C14.398 25.3078 14.081 26.5006 13.4469 27.5876C12.8127 28.6747 11.937 29.5353 10.8198 30.1694C9.73272 30.8035 8.53996 31.1206 7.24153 31.1206ZM7.24153 26.1382C7.84545 26.1382 8.34369 25.9268 8.73624 25.5041C9.15899 25.0814 9.37036 24.5831 9.37036 24.0094C9.37036 23.4055 9.15899 22.9072 8.73624 22.5147C8.34369 22.0919 7.84545 21.8805 7.24153 21.8805C6.6678 21.8805 6.16956 22.0919 5.74681 22.5147C5.35426 22.9072 5.15798 23.4055 5.15798 24.0094C5.15798 24.6133 5.35426 25.1266 5.74681 25.5494C6.16956 25.9419 6.6678 26.1382 7.24153 26.1382ZM26.8274 13.5464L27.1898 15.5393H31.1757C31.9004 15.5393 32.4892 15.2978 32.9422 14.8146C33.4253 14.3315 33.6669 13.7276 33.6669 13.0029V7.11458H40.6875V12.2328L40.6422 14.6334L46.9382 16.264L44.5828 3.12868L51.1505 0.139249L53.8682 15.8564C53.9286 16.1584 53.9588 16.6113 53.9588 17.2152C53.9588 18.9364 53.3549 20.4915 52.147 21.8805C51.5431 22.5449 50.9392 23.2394 50.3352 23.9641L49.3388 25.0964L37.6075 21.9711C36.0373 23.2394 34.1651 23.8735 31.991 23.8735H29.7716C29.2884 23.8735 28.6543 23.8433 27.8692 23.7829V32.1624L20.8486 33.9741L20.8939 20.3858L18.2215 4.5781L24.8345 1.81514L26.8274 13.5464Z" fill="#050B28"/>
</svg>
