<svg width="50" height="53" viewBox="0 0 50 53" fill="none" xmlns="http://www.w3.org/2000/svg">
<path opacity="0.1" d="M40.8118 19.9224C40.8952 21.2631 40.791 22.7795 40.541 24.4717L39.0202 34.779C37.7285 43.3721 33.9577 46.2731 25.8118 44.9324L16.041 43.3061C13.2285 42.8446 11.0618 42.0534 9.4785 40.8667C6.45766 38.647 5.58266 34.9988 6.416 29.3726L7.95766 19.0653C9.24933 10.4723 13.0202 7.57128 21.166 8.91189L30.9368 10.5382C37.4785 11.6151 40.541 14.4282 40.8118 19.9224Z" fill="#3959F8"/>
<path d="M38.8123 15.7134C38.8957 17.054 38.7915 18.5705 38.5415 20.2627L37.0207 30.57C35.729 39.163 31.9582 42.064 23.8123 40.7234L14.0415 39.0971C11.229 38.6356 9.06232 37.8444 7.47899 36.6576C4.45815 34.4379 3.58315 30.7897 4.41649 25.1636L5.95815 14.8563C7.24982 6.26328 11.0207 3.3623 19.1665 4.70291L28.9373 6.32921C35.479 7.40609 38.5415 10.2192 38.8123 15.7134Z" stroke="#3959F8" stroke-width="3.5" stroke-linecap="round" stroke-linejoin="round"/>
<path d="M42.7082 29.6024L39.5832 39.5141C36.979 47.7775 32.8123 49.9752 24.979 47.2281L15.5832 43.9315C10.854 42.2832 8.229 39.9976 7.479 36.6571C9.06234 37.8438 11.229 38.635 14.0415 39.0965L23.8123 40.7228C31.9582 42.0634 35.729 39.1625 37.0207 30.5694L38.5415 20.2622C38.7915 18.5699 38.8957 17.0535 38.8123 15.7129C43.7915 18.504 44.8748 22.7236 42.7082 29.6024Z" stroke="#3959F8" stroke-width="3.5" stroke-linecap="round" stroke-linejoin="round"/>
<path d="M17.1665 19.7359C19.1685 19.7359 20.7915 18.0239 20.7915 15.9119C20.7915 13.8 19.1685 12.0879 17.1665 12.0879C15.1645 12.0879 13.5415 13.8 13.5415 15.9119C13.5415 18.0239 15.1645 19.7359 17.1665 19.7359Z" stroke="#3959F8" stroke-width="3.5" stroke-linecap="round" stroke-linejoin="round"/>
</svg>
