<svg width="55" height="57" viewBox="0 0 55 57" fill="none" xmlns="http://www.w3.org/2000/svg">
<path opacity="0.4" fill-rule="evenodd" clip-rule="evenodd" d="M34.1519 34.5879C33.828 38.1604 30.9751 40.9543 27.5036 40.9543C24.0321 40.9543 21.1792 38.1604 20.8553 34.5879H10.8066C10.8066 36.4316 12.2252 37.9562 13.9776 37.9562C16.9983 37.9562 18.2332 40.2254 16.7145 43.0087C15.8467 44.6043 16.3641 46.6785 17.8828 47.6003L20.77 49.3554C22.0884 50.1886 23.7907 49.6922 24.5751 48.2917L24.7586 47.9549C26.2773 45.1716 28.7473 45.1716 30.2493 47.9549L30.4329 48.2917C31.2173 49.6922 32.9196 50.1886 34.238 49.3554L37.1252 47.6003C38.6439 46.6785 39.1612 44.622 38.2934 43.0087C36.7747 40.2254 38.0097 37.9562 41.0304 37.9562C42.7828 37.9562 44.2013 36.4316 44.2013 34.5879H34.1519Z" fill="#FF891C"/>
<path d="M10.8066 34.5898C10.8066 36.4336 12.2252 37.9582 13.9776 37.9582C16.9983 37.9582 18.2332 40.2274 16.7145 43.0107C15.8467 44.6062 16.3641 46.6804 17.8828 47.6023L20.77 49.3574C22.0884 50.1906 23.7907 49.6942 24.5751 48.2937L24.7586 47.9568C26.2773 45.1735 28.7473 45.1735 30.2493 47.9568L30.4329 48.2937C31.2173 49.6942 32.9196 50.1906 34.238 49.3574L37.1252 47.6023C38.6439 46.6804 39.1612 44.624 38.2934 43.0107C36.7747 40.2274 38.0097 37.9582 41.0304 37.9582C42.7828 37.9582 44.2013 36.4336 44.2013 34.5898" stroke="black" stroke-width="2.55694" stroke-miterlimit="10" stroke-linecap="round" stroke-linejoin="round"/>
<path d="M20.2686 30.3883C20.2686 27.859 23.508 25.8086 27.5041 25.8086C31.5001 25.8086 34.7396 27.859 34.7396 30.3883" stroke="#14181F" stroke-width="2.55694" stroke-linecap="round" stroke-linejoin="round"/>
<path d="M36.1865 21.6113C38.742 22.318 40.5278 23.932 40.5278 25.8099" stroke="#FF891C" stroke-width="2.55694" stroke-linecap="round" stroke-linejoin="round"/>
<path d="M18.8218 21.6113C16.2663 22.318 14.4805 23.932 14.4805 25.8099" stroke="#FF891C" stroke-width="2.55694" stroke-linecap="round" stroke-linejoin="round"/>
<path d="M27.5044 21.2277C29.902 21.2277 31.8457 19.1773 31.8457 16.648C31.8457 14.1187 29.902 12.0684 27.5044 12.0684C25.1068 12.0684 23.1631 14.1187 23.1631 16.648C23.1631 19.1773 25.1068 21.2277 27.5044 21.2277Z" fill="#FF891C"/>
<path d="M36.1868 15.4834C37.075 14.6449 37.634 13.4262 37.634 12.0699C37.634 9.54062 35.6903 7.49023 33.2926 7.49023C32.1808 7.49023 31.1665 7.93119 30.3984 8.65636" stroke="#14181F" stroke-width="2.55694" stroke-linecap="round" stroke-linejoin="round"/>
<path d="M18.8211 15.4834C17.933 14.6449 17.374 13.4262 17.374 12.0699C17.374 9.54062 19.3177 7.49023 21.7153 7.49023C22.8272 7.49023 23.8415 7.93119 24.6095 8.65636" stroke="#14181F" stroke-width="2.55694" stroke-linecap="round" stroke-linejoin="round"/>
</svg>
