<svg width="55" height="58" viewBox="0 0 55 58" fill="none" xmlns="http://www.w3.org/2000/svg">
<path opacity="0.2" d="M20.7305 30.4513C20.7305 29.6444 21.3846 28.9902 22.1916 28.9902H40.7673V46.9046C40.7673 47.7116 40.1131 48.3657 39.3062 48.3657H20.7305V30.4513Z" fill="#8239F8"/>
<path fill-rule="evenodd" clip-rule="evenodd" d="M16.974 9.61523C15.3601 9.61523 14.0518 10.9236 14.0518 12.5375V21.9451H40.7675V12.5375C40.7675 10.9236 39.4592 9.61523 37.8453 9.61523H16.974ZM24.0705 14.5022C23.3644 14.5022 22.792 15.0746 22.792 15.7807C22.792 16.4868 23.3644 17.0592 24.0705 17.0592H30.7494C31.4555 17.0592 32.0279 16.4868 32.0279 15.7807C32.0279 15.0746 31.4555 14.5022 30.7494 14.5022H24.0705Z" fill="#8239F8"/>
<path d="M40.7675 19.303V38.6785C40.7675 46.4287 39.0978 48.3663 32.4188 48.3663H22.4004C15.7215 48.3663 14.0518 46.4287 14.0518 38.6785V19.303C14.0518 11.5528 15.7215 9.61523 22.4004 9.61523H32.4188C39.0978 9.61523 40.7675 11.5528 40.7675 19.303Z" stroke="#050B28" stroke-width="2.55694" stroke-linecap="round" stroke-linejoin="round"/>
<path d="M27.4104 41.4975C28.8397 41.4975 29.9984 40.2751 29.9984 38.7673C29.9984 37.2595 28.8397 36.0371 27.4104 36.0371C25.981 36.0371 24.8223 37.2595 24.8223 38.7673C24.8223 40.2751 25.981 41.4975 27.4104 41.4975Z" fill="#050B28"/>
</svg>
