<svg width="48" height="38" viewBox="0 0 48 38" fill="none" xmlns="http://www.w3.org/2000/svg">
<path opacity="0.1" d="M8.04577 33.4858C6.74733 33.4858 5.55458 33.1688 4.46751 32.5347C3.38045 31.9005 2.51985 31.0399 1.88573 29.9529C1.25161 28.8658 0.93455 27.6731 0.93455 26.3746C0.93455 25.0762 1.25161 23.8834 1.88573 22.7964C2.51985 21.7093 3.38045 20.8487 4.46751 20.2146C5.55458 19.5805 6.74733 19.2634 8.04577 19.2634C9.34421 19.2634 10.537 19.5805 11.624 20.2146C12.7413 20.8487 13.617 21.7093 14.2511 22.7964C14.8852 23.8834 15.2023 25.0762 15.2023 26.3746C15.2023 27.6731 14.8852 28.8658 14.2511 29.9529C13.617 31.0399 12.7413 31.9005 11.624 32.5347C10.537 33.1688 9.34421 33.4858 8.04577 33.4858ZM8.04577 28.5035C8.64969 28.5035 9.14793 28.2921 9.54048 27.8693C9.96323 27.4466 10.1746 26.9483 10.1746 26.3746C10.1746 25.7707 9.96323 25.2725 9.54048 24.8799C9.14793 24.4572 8.64969 24.2458 8.04577 24.2458C7.47204 24.2458 6.9738 24.4572 6.55105 24.8799C6.1585 25.2725 5.96223 25.7707 5.96223 26.3746C5.96223 26.9785 6.1585 27.4919 6.55105 27.9146C6.9738 28.3072 7.47204 28.5035 8.04577 28.5035ZM28.5376 26.0123L24.5517 23.2946C22.7399 22.0566 21.366 20.5165 20.4299 18.6746C19.4938 16.8326 19.0258 14.9302 19.0258 12.9675C19.0258 10.6424 19.6448 8.54373 20.8828 6.67157C22.1209 4.7692 23.9025 3.44057 26.2276 2.68566L31.7082 0.919179L35.6941 7.89451L28.5376 10.2498C27.8431 10.4612 27.2995 10.8236 26.907 11.3369C26.5446 11.8502 26.3634 12.424 26.3634 13.0581C26.3634 13.5714 26.4842 14.0696 26.7258 14.5528C26.9976 15.0359 27.3901 15.4436 27.9035 15.7757L33.2029 19.3993C33.8068 18.7048 34.607 17.9348 35.6035 17.0893L42.9865 10.7481L47.1536 17.2704L39.4535 23.8381C38.608 24.5628 37.9739 25.1668 37.5512 25.6499C37.1586 26.133 36.5547 27.0238 35.7394 28.3223L29.7605 37.5623L24.144 32.7611L28.5376 26.0123Z" fill="#050B28"/>
</svg>
