<svg width="38" height="45" viewBox="0 0 38 45" fill="none" xmlns="http://www.w3.org/2000/svg">
<path opacity="0.1" d="M9.75304 40.3264C7.97571 40.3264 6.34304 39.8924 4.85504 39.0244C3.36704 38.1564 2.18904 36.9784 1.32104 35.4904C0.453039 34.0024 0.0190393 32.3697 0.0190393 30.5924C0.0190393 28.815 0.453039 27.1824 1.32104 25.6944C2.18904 24.2064 3.36704 23.0284 4.85504 22.1604C6.34304 21.2924 7.97571 20.8584 9.75304 20.8584C11.5304 20.8584 13.163 21.2924 14.651 22.1604C16.1804 23.0284 17.379 24.2064 18.247 25.6944C19.115 27.1824 19.549 28.815 19.549 30.5924C19.549 32.3697 19.115 34.0024 18.247 35.4904C17.379 36.9784 16.1804 38.1564 14.651 39.0244C13.163 39.8924 11.5304 40.3264 9.75304 40.3264ZM9.75304 33.5064C10.5797 33.5064 11.2617 33.217 11.799 32.6384C12.3777 32.0597 12.667 31.3777 12.667 30.5924C12.667 29.7657 12.3777 29.0837 11.799 28.5464C11.2617 27.9677 10.5797 27.6784 9.75304 27.6784C8.96771 27.6784 8.28571 27.9677 7.70704 28.5464C7.16971 29.0837 6.90104 29.7657 6.90104 30.5924C6.90104 31.419 7.16971 32.1217 7.70704 32.7004C8.28571 33.2377 8.96771 33.5064 9.75304 33.5064ZM24.7827 3.99437L33.8347 0.212373L37.4307 21.1684C37.72 22.739 37.8854 23.8964 37.9267 24.6404C37.968 25.343 37.9887 26.7897 37.9887 28.9804V41.7524L28.3787 44.2324V25.6324L24.7827 3.99437Z" fill="#050B28"/>
</svg>
