<svg width="49" height="36" viewBox="0 0 49 36" fill="none" xmlns="http://www.w3.org/2000/svg">
<path opacity="0.1" d="M8.00757 32.4858C6.70913 32.4858 5.51638 32.1688 4.42931 31.5347C3.34225 30.9005 2.48165 30.0399 1.84753 28.9529C1.21341 27.8658 0.896352 26.6731 0.896352 25.3746C0.896352 24.0762 1.21341 22.8834 1.84753 21.7964C2.48165 20.7093 3.34225 19.8487 4.42931 19.2146C5.51638 18.5805 6.70913 18.2634 8.00757 18.2634C9.30601 18.2634 10.4988 18.5805 11.5858 19.2146C12.7031 19.8487 13.5788 20.7093 14.2129 21.7964C14.847 22.8834 15.1641 24.0762 15.1641 25.3746C15.1641 26.6731 14.847 27.8658 14.2129 28.9529C13.5788 30.0399 12.7031 30.9005 11.5858 31.5347C10.4988 32.1688 9.30601 32.4858 8.00757 32.4858ZM8.00757 27.5035C8.61149 27.5035 9.10973 27.2921 9.50228 26.8693C9.92503 26.4466 10.1364 25.9483 10.1364 25.3746C10.1364 24.7707 9.92503 24.2725 9.50228 23.8799C9.10973 23.4572 8.61149 23.2458 8.00757 23.2458C7.43384 23.2458 6.9356 23.4572 6.51285 23.8799C6.1203 24.2725 5.92403 24.7707 5.92403 25.3746C5.92403 25.9785 6.1203 26.4919 6.51285 26.9146C6.9356 27.3072 7.43384 27.5035 8.00757 27.5035ZM18.9876 7.0304L25.5552 3.90508L27.5029 15.274L27.7747 16.9046H30.13L29.6317 13.4622C29.5412 12.8281 29.4959 12.2242 29.4959 11.6504C29.4959 9.74806 29.9186 8.01178 30.7641 6.44157C31.6096 4.87136 32.7872 3.58802 34.2971 2.59155C35.8371 1.59507 37.6035 0.991146 39.5965 0.779772L42.3142 0.508006L45.2583 8.16276L40.0947 8.66099C38.9775 8.78178 38.0867 9.18943 37.4224 9.88394C36.7883 10.5483 36.4712 11.3938 36.4712 12.4204C36.4712 12.5714 36.5014 12.8281 36.5618 13.1904L37.1506 16.9046H48.2477L46.2095 25.2387H28.4541V33.5276L21.4335 35.3394L21.4788 21.7511L18.9876 7.0304Z" fill="#050B28"/>
</svg>
