<svg width="69" height="74" viewBox="0 0 69 74" fill="none" xmlns="http://www.w3.org/2000/svg">
<path opacity="0.2" d="M30.1875 26.9629C30.1875 24.1345 30.1875 22.7202 31.0662 21.8416C31.9449 20.9629 33.3591 20.9629 36.1875 20.9629H53.9062V51.3571C53.9062 54.1855 53.9062 55.5997 53.0276 56.4784C52.1489 57.3571 50.7347 57.3571 47.9062 57.3571H30.1875V26.9629Z" fill="#09C03C"/>
<rect x="15.0938" y="9.58984" width="38.8125" height="47.7674" rx="7" stroke="#050B28" stroke-width="3.5"/>
<path d="M43.1142 50.5336C42.8324 50.5336 42.5507 50.4652 42.2907 50.3512C42.0306 50.2371 41.7922 50.0775 41.5972 49.8722C41.1855 49.4388 40.9688 48.8685 40.9688 48.2527C40.9688 47.6596 41.1855 47.0666 41.5972 46.6332C42.1823 45.9945 43.1575 45.812 43.9593 46.1542C44.2194 46.2682 44.4578 46.4279 44.6528 46.6332C45.0645 47.0666 45.2812 47.6596 45.2812 48.2527C45.2812 48.8685 45.0645 49.4388 44.6528 49.8722C44.2411 50.3056 43.6993 50.5336 43.1142 50.5336Z" fill="#09C03C"/>
<path d="M34.5 50.5336C33.9394 50.5336 33.4003 50.3056 32.9906 49.8722C32.5809 49.4388 32.3438 48.8685 32.3438 48.2527C32.3438 48.093 32.3653 47.9561 32.3869 47.7965C32.43 47.6596 32.4731 47.5228 32.5162 47.3859C32.5809 47.2491 32.6456 47.1122 32.7103 46.9753C32.7966 46.8613 32.8828 46.7472 32.9906 46.6332C33.1847 46.4279 33.4219 46.2682 33.6806 46.1542C34.4784 45.812 35.4272 45.9945 36.0309 46.6332C36.4406 47.0666 36.6562 47.6596 36.6562 48.2527C36.6562 48.8685 36.4406 49.4388 36.0309 49.8722C35.8369 50.0775 35.5997 50.2371 35.3409 50.3512C35.0822 50.4652 34.8019 50.5336 34.5 50.5336Z" fill="#09C03C"/>
<path d="M25.8857 50.5336C25.3064 50.5336 24.7701 50.3056 24.3624 49.8723C23.9548 49.4391 23.7188 48.869 23.7188 48.2533C23.7188 47.6604 23.9548 47.0675 24.3624 46.6343C24.5555 46.429 24.7915 46.2694 25.049 46.1554C25.5854 45.9274 26.1646 45.9274 26.701 46.1554C26.8298 46.201 26.9585 46.2694 27.0658 46.3606C27.1945 46.429 27.3018 46.5431 27.3876 46.6343C27.7952 47.0675 28.0312 47.6604 28.0312 48.2533C28.0312 48.869 27.7952 49.4391 27.3876 49.8723C26.9799 50.3056 26.4436 50.5336 25.8857 50.5336Z" fill="#09C03C"/>
<path d="M43.1143 41.434C42.5564 41.434 42.0201 41.2051 41.6124 40.7702C41.2048 40.3353 40.9688 39.7631 40.9688 39.1451C40.9688 38.55 41.2048 37.9548 41.6124 37.5199C42.4063 36.673 43.8438 36.673 44.6376 37.5199C45.0452 37.9548 45.2812 38.55 45.2812 39.1451C45.2812 39.4427 45.2169 39.7402 45.1096 40.0149C45.0023 40.2896 44.8521 40.5414 44.6376 40.7702C44.2299 41.2051 43.6936 41.434 43.1143 41.434Z" fill="#09C03C"/>
<path d="M34.5 41.434C33.9394 41.434 33.4003 41.2051 32.9906 40.7702C32.5809 40.3353 32.3438 39.7631 32.3438 39.1451C32.3438 38.55 32.5809 37.9548 32.9906 37.5199C33.7884 36.673 35.2331 36.673 36.0309 37.5199C36.225 37.7488 36.3975 37.9777 36.5053 38.2753C36.6131 38.55 36.6562 38.8475 36.6562 39.1451C36.6562 39.7631 36.4406 40.3353 36.0309 40.7702C35.6213 41.2051 35.0822 41.434 34.5 41.434Z" fill="#09C03C"/>
<path d="M25.8966 41.434C25.5947 41.434 25.3144 41.3658 25.0556 41.2521C24.7969 41.1385 24.5597 40.9793 24.3656 40.7747C23.9559 40.3427 23.7188 39.7743 23.7188 39.1604C23.7188 38.8648 23.7834 38.5693 23.8912 38.2964C23.9991 38.0009 24.15 37.7735 24.3656 37.5461C24.8616 37.0232 25.6163 36.7731 26.3063 36.9322C26.4356 36.955 26.5866 37.0005 26.7159 37.0687C26.8453 37.1141 26.9747 37.1823 27.0825 37.2733C27.2119 37.3415 27.3197 37.4552 27.4059 37.5461C27.6 37.7735 27.7725 38.0009 27.8803 38.2964C27.9881 38.5693 28.0312 38.8648 28.0312 39.1604C28.0312 39.7743 27.8156 40.3427 27.4059 40.7747C26.9962 41.2067 26.4572 41.434 25.8966 41.434Z" fill="#09C03C"/>
<rect x="23.7188" y="16.4141" width="21.5625" height="13.6478" rx="1.5" fill="#09C03C" stroke="#050B28" stroke-width="3.5"/>
</svg>
