<svg width="55" height="57" viewBox="0 0 55 57" fill="none" xmlns="http://www.w3.org/2000/svg">
<path opacity="0.2" d="M47.6324 29.5062C47.6324 18.3248 39.0299 9.25 28.4305 9.25C17.831 9.25 9.22852 18.3248 9.22852 29.5062C9.22852 40.6876 17.831 49.7624 28.4305 49.7624" fill="#E71D36"/>
<path d="M20.7494 11.2754H22.6696C18.9252 23.105 18.9252 35.9069 22.6696 47.7366H20.7494" stroke="#050B28" stroke-width="2.55694" stroke-linecap="round" stroke-linejoin="round"/>
<path d="M34.1914 11.2754C36.054 17.1902 36.9949 23.3481 36.9949 29.506" stroke="#050B28" stroke-width="2.55694" stroke-linecap="round" stroke-linejoin="round"/>
<path d="M11.1494 37.6077V35.582C16.7564 37.5469 22.5938 38.5395 28.4312 38.5395" stroke="#E71D36" stroke-width="2.55694" stroke-linecap="round" stroke-linejoin="round"/>
<path d="M11.1494 23.4293C22.3633 19.4793 34.499 19.4793 45.7129 23.4293" stroke="#E71D36" stroke-width="2.55694" stroke-linecap="round" stroke-linejoin="round"/>
<path d="M47.6324 29.5062C47.6324 18.3248 39.0299 9.25 28.4305 9.25C17.831 9.25 9.22852 18.3248 9.22852 29.5062C9.22852 40.6876 17.831 49.7624 28.4305 49.7624" stroke="#050B28" stroke-width="2.55694" stroke-linecap="round" stroke-linejoin="round"/>
<ellipse cx="39.2834" cy="40.9558" rx="6.67894" ry="7.04564" fill="#E71D36" stroke="#050B28" stroke-width="2.55694"/>
<path d="M43.458 46.2402L47.6323 50.6438" stroke="#050B28" stroke-width="2.55694" stroke-linecap="round"/>
</svg>
