<svg width="425" height="259" viewBox="0 0 425 259" fill="none" xmlns="http://www.w3.org/2000/svg">
<g filter="url(#filter0_d_3068_55616)">
<rect x="44" width="337" height="170.346" rx="10" fill="white"/>
</g>
<circle cx="334" cy="100.342" r="21" fill="#1E66FF"/>
<path d="M324.233 138.845L323.562 138.669L323.815 137.789C323.874 137.598 323.962 137.437 324.079 137.305C324.196 137.173 324.332 137.07 324.486 136.997C324.64 136.923 324.801 136.879 324.97 136.865C325.139 136.85 325.296 136.865 325.443 136.909L329.436 138.108L329.205 138.79L328.589 138.647C328.494 138.617 328.395 138.614 328.292 138.636C328.197 138.658 328.109 138.698 328.028 138.757V139.637C328.028 139.864 328.105 140.055 328.259 140.209C328.42 140.363 328.611 140.44 328.831 140.44H330.283C330.393 140.44 330.448 140.491 330.448 140.594V141.188C330.448 141.224 330.43 141.261 330.393 141.298C330.364 141.327 330.327 141.342 330.283 141.342H328.963C328.736 141.342 328.523 141.298 328.325 141.21C328.127 141.122 327.955 141.004 327.808 140.858C327.669 140.704 327.559 140.524 327.478 140.319C327.397 140.113 327.357 139.897 327.357 139.67V139.219L325.234 140.781C325.007 140.949 324.831 141.155 324.706 141.397C324.581 141.639 324.519 141.903 324.519 142.189C324.519 142.438 324.567 142.673 324.662 142.893C324.765 143.12 324.9 143.314 325.069 143.476C325.238 143.644 325.432 143.776 325.652 143.872C325.879 143.967 326.118 144.015 326.367 144.015H328.952V144.917H326.367C326.008 144.917 325.667 144.847 325.344 144.708C325.021 144.568 324.739 144.378 324.497 144.136C324.262 143.901 324.072 143.622 323.925 143.3C323.786 142.984 323.716 142.647 323.716 142.288C323.716 141.862 323.811 141.47 324.002 141.111C324.193 140.744 324.453 140.44 324.783 140.198C324.937 140.088 325.12 139.956 325.333 139.802C325.553 139.64 325.773 139.479 325.993 139.318C326.22 139.149 326.437 138.991 326.642 138.845C326.855 138.691 327.031 138.562 327.17 138.46C327.207 138.43 327.251 138.401 327.302 138.372C327.353 138.335 327.401 138.302 327.445 138.273L325.124 137.591C324.999 137.554 324.875 137.576 324.75 137.657C324.625 137.73 324.545 137.833 324.508 137.965L324.233 138.845ZM324.508 134.621H325.443V135.556H324.508V134.621ZM331.609 140.44C331.829 140.44 332.016 140.363 332.17 140.209C332.324 140.055 332.401 139.871 332.401 139.659V137.635H333.16V139.659C333.16 139.893 333.116 140.113 333.028 140.319C332.94 140.524 332.819 140.704 332.665 140.858C332.511 141.004 332.331 141.122 332.126 141.21C331.928 141.298 331.711 141.342 331.477 141.342H330.278C330.175 141.342 330.124 141.29 330.124 141.188V140.605C330.124 140.561 330.138 140.524 330.168 140.495C330.197 140.458 330.234 140.44 330.278 140.44H331.609ZM332.28 136.326H333.215V135.391H332.28V136.326ZM335.605 137.954V139.681C335.605 139.893 335.682 140.073 335.836 140.22C335.997 140.366 336.184 140.44 336.397 140.44H337.497C337.541 140.44 337.578 140.458 337.607 140.495C337.636 140.524 337.651 140.561 337.651 140.605V141.188C337.651 141.29 337.6 141.342 337.497 141.342H336.529C336.353 141.342 336.181 141.305 336.012 141.232C335.843 141.158 335.708 141.048 335.605 140.902V141.386C335.605 141.642 335.565 141.888 335.484 142.123C335.403 142.365 335.29 142.585 335.143 142.783C335.004 142.981 334.831 143.153 334.626 143.3C334.421 143.454 334.197 143.571 333.955 143.652L332.701 144.092L332.459 143.333L333.79 142.893C334.113 142.79 334.369 142.603 334.56 142.332C334.751 142.06 334.846 141.76 334.846 141.43V137.954H335.605ZM340.412 141.342C340.148 141.342 339.902 141.283 339.675 141.166C339.447 141.041 339.26 140.858 339.114 140.616C338.967 140.858 338.78 141.041 338.553 141.166C338.325 141.283 338.08 141.342 337.816 141.342H337.497C337.394 141.342 337.343 141.29 337.343 141.188V140.594C337.343 140.55 337.361 140.513 337.398 140.484C337.427 140.454 337.46 140.44 337.497 140.44H337.948C338.168 140.44 338.355 140.363 338.509 140.209C338.663 140.055 338.74 139.868 338.74 139.648V137.932H339.499V139.659C339.499 139.879 339.576 140.066 339.73 140.22C339.884 140.366 340.067 140.44 340.28 140.44H340.478C340.69 140.44 340.877 140.377 341.039 140.253C341.2 140.121 341.299 139.952 341.336 139.747L341.688 138.009L342.425 138.141L342.139 139.582C342.095 139.816 342.15 140.018 342.304 140.187C342.465 140.355 342.663 140.44 342.898 140.44H343.844V137.624H344.603V140.352C344.603 140.652 344.511 140.894 344.328 141.078C344.144 141.254 343.906 141.342 343.613 141.342H342.887C342.645 141.342 342.414 141.279 342.194 141.155C341.974 141.03 341.809 140.85 341.699 140.616C341.552 140.865 341.365 141.048 341.138 141.166C340.91 141.283 340.668 141.342 340.412 141.342Z" fill="#7E8AAB"/>
<circle cx="253" cy="100.342" r="21" fill="#F9DF00"/>
<path d="M248.155 140.44H248.386C248.43 140.44 248.467 140.458 248.496 140.495C248.525 140.524 248.54 140.561 248.54 140.605V141.188C248.54 141.29 248.489 141.342 248.386 141.342H248.177C247.898 141.342 247.645 141.272 247.418 141.133C247.191 140.986 247.007 140.781 246.868 140.517C246.721 140.781 246.523 140.986 246.274 141.133C246.032 141.272 245.772 141.342 245.493 141.342H243.986C243.825 141.342 243.671 141.312 243.524 141.254C243.385 141.188 243.26 141.1 243.15 140.99C243.047 140.88 242.963 140.755 242.897 140.616C242.838 140.469 242.809 140.315 242.809 140.154V138.988H243.458V139.956C243.458 140.088 243.495 140.201 243.568 140.297C243.641 140.392 243.751 140.44 243.898 140.44H245.504C245.658 140.44 245.797 140.407 245.922 140.341C246.047 140.275 246.149 140.187 246.23 140.077C246.318 139.967 246.377 139.846 246.406 139.714C246.435 139.574 246.432 139.435 246.395 139.296L245.581 136.337L246.296 136.073L247.341 139.813C247.392 139.996 247.491 140.146 247.638 140.264C247.792 140.381 247.964 140.44 248.155 140.44ZM249.09 143.597H250.025V142.662H249.09V143.597ZM250.597 143.597H251.532V142.662H250.597V143.597ZM252.346 141.188C252.346 141.29 252.295 141.342 252.192 141.342H251.51C251.386 141.342 251.261 141.323 251.136 141.287C251.012 141.25 250.894 141.199 250.784 141.133C250.674 141.067 250.579 140.99 250.498 140.902C250.418 140.814 250.363 140.718 250.333 140.616C250.209 140.828 250.029 141.004 249.794 141.144C249.567 141.276 249.325 141.342 249.068 141.342H248.386C248.284 141.342 248.232 141.29 248.232 141.188V140.605C248.232 140.561 248.247 140.524 248.276 140.495C248.306 140.458 248.342 140.44 248.386 140.44H249.101C249.314 140.44 249.497 140.374 249.651 140.242C249.813 140.11 249.915 139.945 249.959 139.747L250.3 138.009L251.048 138.13L250.762 139.582C250.74 139.692 250.744 139.802 250.773 139.912C250.803 140.014 250.854 140.106 250.927 140.187C251.001 140.26 251.089 140.322 251.191 140.374C251.294 140.418 251.404 140.44 251.521 140.44H252.192C252.236 140.44 252.273 140.458 252.302 140.495C252.332 140.524 252.346 140.561 252.346 140.605V141.188ZM252.046 140.594C252.046 140.491 252.094 140.44 252.189 140.44H252.86C253.08 140.44 253.267 140.363 253.421 140.209C253.582 140.055 253.663 139.868 253.663 139.648V134.093H254.422V139.648C254.422 139.882 254.374 140.102 254.279 140.308C254.191 140.513 254.07 140.693 253.916 140.847C253.762 141.001 253.582 141.122 253.377 141.21C253.172 141.298 252.952 141.342 252.717 141.342H252.189C252.094 141.342 252.046 141.29 252.046 141.188V140.594ZM257.246 141.342C257.018 141.342 256.809 141.294 256.619 141.199C256.428 141.103 256.267 140.975 256.135 140.814C256.003 140.652 255.907 140.469 255.849 140.264C255.79 140.051 255.783 139.835 255.827 139.615L256.014 138.614C256.043 138.445 256.102 138.291 256.19 138.152C256.278 138.005 256.384 137.88 256.509 137.778C256.633 137.675 256.773 137.594 256.927 137.536C257.088 137.477 257.257 137.448 257.433 137.448H258.049C258.261 137.448 258.459 137.488 258.643 137.569C258.833 137.649 258.998 137.759 259.138 137.899C259.277 138.031 259.387 138.192 259.468 138.383C259.548 138.566 259.589 138.764 259.589 138.977V140.44H260.458C260.502 140.44 260.538 140.458 260.568 140.495C260.597 140.524 260.612 140.557 260.612 140.594V141.188C260.612 141.29 260.56 141.342 260.458 141.342H259.578V141.474C259.563 141.972 259.405 142.42 259.105 142.816C258.811 143.219 258.423 143.505 257.939 143.674L256.685 144.103L256.443 143.344L257.763 142.904C258.078 142.794 258.331 142.607 258.522 142.343C258.72 142.086 258.819 141.789 258.819 141.452V141.254C258.76 141.29 258.69 141.316 258.61 141.331C258.536 141.338 258.459 141.342 258.379 141.342H257.246ZM257.169 140.44H258.83V138.977C258.83 138.786 258.76 138.625 258.621 138.493C258.489 138.353 258.327 138.284 258.137 138.284H257.411C257.242 138.284 257.095 138.335 256.971 138.438C256.846 138.54 256.765 138.676 256.729 138.845L256.564 139.725C256.527 139.915 256.571 140.084 256.696 140.231C256.82 140.37 256.978 140.44 257.169 140.44ZM261.791 140.44C262.011 140.44 262.198 140.363 262.352 140.209C262.506 140.055 262.583 139.871 262.583 139.659V137.635H263.342V139.659C263.342 139.893 263.298 140.113 263.21 140.319C263.122 140.524 263.001 140.704 262.847 140.858C262.693 141.004 262.514 141.122 262.308 141.21C262.11 141.298 261.894 141.342 261.659 141.342H260.46C260.358 141.342 260.306 141.29 260.306 141.188V140.605C260.306 140.561 260.321 140.524 260.35 140.495C260.38 140.458 260.416 140.44 260.46 140.44H261.791ZM260.889 136.348H261.824V135.413H260.889V136.348ZM262.396 136.348H263.331V135.413H262.396V136.348Z" fill="#7E8AAB"/>
<circle cx="172" cy="100.342" r="21" fill="#F44E00"/>
<path d="M158.506 138.757C158.506 138.295 158.627 137.913 158.869 137.613C159.118 137.312 159.437 137.11 159.826 137.008L161.344 136.623V135.721H162.103V139.582C162.103 139.699 162.128 139.809 162.18 139.912C162.231 140.014 162.297 140.106 162.378 140.187C162.458 140.26 162.554 140.322 162.664 140.374C162.781 140.418 162.898 140.44 163.016 140.44H163.346C163.448 140.44 163.5 140.491 163.5 140.594V141.188C163.5 141.29 163.448 141.342 163.346 141.342H163.016C162.671 141.342 162.367 141.25 162.103 141.067C161.839 140.883 161.641 140.645 161.509 140.352C161.377 140.462 161.212 140.517 161.014 140.517H159.54C159.21 140.517 158.953 140.425 158.77 140.242C158.594 140.058 158.506 139.802 158.506 139.472V138.757ZM161.344 137.426L159.991 137.778C159.763 137.836 159.584 137.965 159.452 138.163C159.327 138.353 159.265 138.559 159.265 138.779V139.615H161.344V137.426ZM165.3 138.636H166.906V137.239C166.906 137.048 166.836 136.887 166.697 136.755C166.565 136.615 166.4 136.546 166.202 136.546H165.531C165.362 136.546 165.212 136.597 165.08 136.7C164.955 136.802 164.878 136.938 164.849 137.107L164.695 137.91C164.658 138.1 164.702 138.269 164.827 138.416C164.951 138.562 165.109 138.636 165.3 138.636ZM167.665 139.648C167.665 139.882 167.617 140.102 167.522 140.308C167.434 140.513 167.313 140.693 167.159 140.847C167.005 141.001 166.825 141.122 166.62 141.21C166.414 141.298 166.194 141.342 165.96 141.342H163.342C163.239 141.342 163.188 141.29 163.188 141.188V140.594C163.188 140.557 163.206 140.524 163.243 140.495C163.272 140.458 163.305 140.44 163.342 140.44H166.015C166.249 140.44 166.455 140.374 166.631 140.242C166.807 140.11 166.895 139.893 166.895 139.593V139.439C166.829 139.475 166.759 139.501 166.686 139.516C166.612 139.523 166.535 139.527 166.455 139.527H165.377C165.149 139.527 164.937 139.479 164.739 139.384C164.548 139.288 164.387 139.16 164.255 138.999C164.123 138.837 164.027 138.654 163.969 138.449C163.917 138.236 163.914 138.02 163.958 137.8L164.134 136.876C164.163 136.707 164.222 136.549 164.31 136.403C164.398 136.256 164.504 136.131 164.629 136.029C164.753 135.926 164.893 135.845 165.047 135.787C165.208 135.728 165.377 135.699 165.553 135.699H166.125C166.337 135.699 166.535 135.739 166.719 135.82C166.909 135.9 167.074 136.01 167.214 136.15C167.353 136.289 167.463 136.454 167.544 136.645C167.624 136.828 167.665 137.026 167.665 137.239V139.648ZM164.607 133.477H165.542V134.412H164.607V133.477ZM166.114 133.477H167.049V134.412H166.114V133.477ZM170.055 137.954V139.681C170.055 139.893 170.132 140.073 170.286 140.22C170.447 140.366 170.634 140.44 170.847 140.44H171.947C171.991 140.44 172.027 140.458 172.057 140.495C172.086 140.524 172.101 140.561 172.101 140.605V141.188C172.101 141.29 172.049 141.342 171.947 141.342H170.979C170.803 141.342 170.63 141.305 170.462 141.232C170.293 141.158 170.157 141.048 170.055 140.902V141.386C170.055 141.642 170.014 141.888 169.934 142.123C169.853 142.365 169.739 142.585 169.593 142.783C169.453 142.981 169.281 143.153 169.076 143.3C168.87 143.454 168.647 143.571 168.405 143.652L167.151 144.092L166.909 143.333L168.24 142.893C168.562 142.79 168.819 142.603 169.01 142.332C169.2 142.06 169.296 141.76 169.296 141.43V137.954H170.055ZM173.288 139.164C173.288 139.398 173.391 139.611 173.596 139.802C173.802 139.992 174.066 140.168 174.388 140.33C174.711 140.168 174.979 139.992 175.191 139.802C175.404 139.611 175.51 139.398 175.51 139.164V138.845C175.51 138.698 175.481 138.562 175.422 138.438C175.371 138.313 175.298 138.207 175.202 138.119C175.107 138.023 174.997 137.95 174.872 137.899C174.748 137.84 174.612 137.811 174.465 137.811H174.311C174.172 137.811 174.04 137.84 173.915 137.899C173.791 137.95 173.681 138.023 173.585 138.119C173.497 138.207 173.424 138.313 173.365 138.438C173.314 138.562 173.288 138.698 173.288 138.845V139.164ZM172.54 138.779C172.54 138.529 172.588 138.295 172.683 138.075C172.779 137.855 172.907 137.664 173.068 137.503C173.237 137.334 173.428 137.202 173.64 137.107C173.86 137.011 174.091 136.964 174.333 136.964H174.465C174.715 136.964 174.946 137.011 175.158 137.107C175.378 137.202 175.569 137.334 175.73 137.503C175.892 137.664 176.02 137.855 176.115 138.075C176.211 138.287 176.258 138.518 176.258 138.768V139.109C176.258 139.373 176.192 139.615 176.06 139.835C175.936 140.055 175.767 140.256 175.554 140.44H175.884H176.852C176.889 140.44 176.922 140.458 176.951 140.495C176.988 140.524 177.006 140.561 177.006 140.605V141.188C177.006 141.224 176.988 141.261 176.951 141.298C176.922 141.327 176.889 141.342 176.852 141.342H175.884C175.628 141.342 175.378 141.32 175.136 141.276C174.902 141.224 174.652 141.147 174.388 141.045C174.132 141.147 173.882 141.224 173.64 141.276C173.406 141.32 173.16 141.342 172.903 141.342H171.946C171.902 141.342 171.866 141.327 171.836 141.298C171.807 141.261 171.792 141.224 171.792 141.188V140.605C171.792 140.561 171.807 140.524 171.836 140.495C171.866 140.458 171.902 140.44 171.946 140.44H172.914H173.244C173.032 140.256 172.859 140.055 172.727 139.835C172.603 139.615 172.54 139.373 172.54 139.109V138.779ZM173.904 135.666H174.839V134.731H173.904V135.666ZM177.559 136.7H178.494V135.765H177.559V136.7ZM179.066 136.7H180.001V135.765H179.066V136.7ZM180.815 141.188C180.815 141.29 180.764 141.342 180.661 141.342H179.979C179.855 141.342 179.73 141.323 179.605 141.287C179.481 141.25 179.363 141.199 179.253 141.133C179.143 141.067 179.048 140.99 178.967 140.902C178.887 140.814 178.832 140.718 178.802 140.616C178.678 140.828 178.498 141.004 178.263 141.144C178.036 141.276 177.794 141.342 177.537 141.342H176.855C176.753 141.342 176.701 141.29 176.701 141.188V140.605C176.701 140.561 176.716 140.524 176.745 140.495C176.775 140.458 176.811 140.44 176.855 140.44H177.57C177.783 140.44 177.966 140.374 178.12 140.242C178.282 140.11 178.384 139.945 178.428 139.747L178.769 138.009L179.517 138.13L179.231 139.582C179.209 139.692 179.213 139.802 179.242 139.912C179.272 140.014 179.323 140.106 179.396 140.187C179.47 140.26 179.558 140.322 179.66 140.374C179.763 140.418 179.873 140.44 179.99 140.44H180.661C180.705 140.44 180.742 140.458 180.771 140.495C180.801 140.524 180.815 140.561 180.815 140.605V141.188ZM183.232 140.44H184.904V138.966C184.904 138.775 184.835 138.614 184.695 138.482C184.563 138.342 184.398 138.273 184.2 138.273H183.485C183.317 138.273 183.17 138.328 183.045 138.438C182.921 138.54 182.84 138.672 182.803 138.834L182.638 139.725C182.602 139.915 182.642 140.084 182.759 140.231C182.884 140.37 183.042 140.44 183.232 140.44ZM181.857 139.747L182.088 138.614C182.118 138.445 182.176 138.287 182.264 138.141C182.352 137.994 182.459 137.869 182.583 137.767C182.708 137.664 182.847 137.583 183.001 137.525C183.163 137.466 183.331 137.437 183.507 137.437H184.123C184.336 137.437 184.534 137.477 184.717 137.558C184.908 137.638 185.073 137.748 185.212 137.888C185.352 138.027 185.462 138.188 185.542 138.372C185.623 138.555 185.663 138.753 185.663 138.966V140.352C185.663 140.645 185.572 140.883 185.388 141.067C185.212 141.25 184.97 141.342 184.662 141.342H183.32C183.086 141.342 182.869 141.287 182.671 141.177C182.481 141.059 182.323 140.872 182.198 140.616C182.066 140.872 181.89 141.059 181.67 141.177C181.45 141.287 181.219 141.342 180.977 141.342H180.658C180.556 141.342 180.504 141.29 180.504 141.188V140.594C180.504 140.557 180.519 140.524 180.548 140.495C180.578 140.458 180.614 140.44 180.658 140.44H181.01C181.223 140.44 181.406 140.374 181.56 140.242C181.722 140.11 181.821 139.945 181.857 139.747Z" fill="#7E8AAB"/>
<ellipse cx="90.5" cy="100.342" rx="21.5" ry="21" fill="#DF7F7B"/>
<path d="M81.7619 139.813C81.9966 139.864 82.1836 139.97 82.3229 140.132C82.4623 140.293 82.5319 140.491 82.5319 140.726V141.166C82.5319 141.437 82.4806 141.694 82.3779 141.936C82.2753 142.178 82.1323 142.387 81.9489 142.563C81.7729 142.746 81.5639 142.889 81.3219 142.992C81.0873 143.094 80.8343 143.146 80.5629 143.146H78.3409C78.0403 143.146 77.7543 143.087 77.4829 142.97C77.2189 142.852 76.9879 142.695 76.7899 142.497C76.5919 142.299 76.4343 142.064 76.3169 141.793C76.1996 141.529 76.1409 141.243 76.1409 140.935V138.405H76.8999V140.814C76.8999 141.012 76.9366 141.195 77.0099 141.364C77.0833 141.54 77.1859 141.69 77.3179 141.815C77.4499 141.947 77.6039 142.049 77.7799 142.123C77.9559 142.203 78.1429 142.244 78.3409 142.244H80.5959C80.7573 142.244 80.9076 142.211 81.0469 142.145C81.1936 142.086 81.3183 142.002 81.4209 141.892C81.5309 141.789 81.6153 141.664 81.6739 141.518C81.7399 141.371 81.7729 141.217 81.7729 141.056V140.627L78.7699 139.923V138.757C78.7699 138.493 78.8139 138.247 78.9019 138.02C78.9973 137.785 79.1256 137.58 79.2869 137.404C79.4483 137.228 79.6316 137.085 79.8369 136.975C80.0496 136.865 80.2769 136.795 80.5189 136.766L81.7949 136.601L81.9159 137.393L80.4639 137.591C80.1853 137.635 79.9543 137.77 79.7709 137.998C79.5949 138.218 79.5069 138.467 79.5069 138.746V139.285L81.7619 139.813ZM85.9604 137.954V139.681C85.9604 139.893 86.0374 140.073 86.1914 140.22C86.3527 140.366 86.5397 140.44 86.7524 140.44H87.8524C87.8964 140.44 87.9331 140.458 87.9624 140.495C87.9917 140.524 88.0064 140.561 88.0064 140.605V141.188C88.0064 141.29 87.9551 141.342 87.8524 141.342H86.8844C86.7084 141.342 86.5361 141.305 86.3674 141.232C86.1987 141.158 86.0631 141.048 85.9604 140.902V141.386C85.9604 141.642 85.9201 141.888 85.8394 142.123C85.7587 142.365 85.6451 142.585 85.4984 142.783C85.3591 142.981 85.1867 143.153 84.9814 143.3C84.7761 143.454 84.5524 143.571 84.3104 143.652L83.0564 144.092L82.8144 143.333L84.1454 142.893C84.4681 142.79 84.7247 142.603 84.9154 142.332C85.1061 142.06 85.2014 141.76 85.2014 141.43V137.954H85.9604ZM88.5561 136.7H89.4911V135.765H88.5561V136.7ZM90.0631 136.7H90.9981V135.765H90.0631V136.7ZM91.8121 141.188C91.8121 141.29 91.7607 141.342 91.6581 141.342H90.9761C90.8514 141.342 90.7267 141.323 90.6021 141.287C90.4774 141.25 90.3601 141.199 90.2501 141.133C90.1401 141.067 90.0447 140.99 89.9641 140.902C89.8834 140.814 89.8284 140.718 89.7991 140.616C89.6744 140.828 89.4947 141.004 89.2601 141.144C89.0327 141.276 88.7907 141.342 88.5341 141.342H87.8521C87.7494 141.342 87.6981 141.29 87.6981 141.188V140.605C87.6981 140.561 87.7127 140.524 87.7421 140.495C87.7714 140.458 87.8081 140.44 87.8521 140.44H88.5671C88.7797 140.44 88.9631 140.374 89.1171 140.242C89.2784 140.11 89.3811 139.945 89.4251 139.747L89.7661 138.009L90.5141 138.13L90.2281 139.582C90.2061 139.692 90.2097 139.802 90.2391 139.912C90.2684 140.014 90.3197 140.106 90.3931 140.187C90.4664 140.26 90.5544 140.322 90.6571 140.374C90.7597 140.418 90.8697 140.44 90.9871 140.44H91.6581C91.7021 140.44 91.7387 140.458 91.7681 140.495C91.7974 140.524 91.8121 140.561 91.8121 140.605V141.188ZM94.6138 141.342C94.3425 141.342 94.0931 141.283 93.8658 141.166C93.6385 141.041 93.4478 140.858 93.2938 140.616C93.1398 140.858 92.9491 141.041 92.7218 141.166C92.4945 141.283 92.2451 141.342 91.9738 141.342H91.6548C91.6108 141.342 91.5741 141.327 91.5448 141.298C91.5155 141.261 91.5008 141.224 91.5008 141.188V140.594C91.5008 140.55 91.5191 140.513 91.5558 140.484C91.5851 140.454 91.6181 140.44 91.6548 140.44H92.1058C92.3258 140.44 92.5128 140.363 92.6668 140.209C92.8281 140.055 92.9088 139.868 92.9088 139.648V137.932H93.6678V139.681C93.6678 139.893 93.7448 140.077 93.8988 140.231C94.0601 140.377 94.2471 140.451 94.4598 140.451H94.6578C94.8705 140.451 95.0575 140.385 95.2188 140.253C95.3875 140.121 95.4901 139.948 95.5268 139.736L95.8568 138.009L96.6158 138.13L96.3298 139.582C96.3078 139.706 96.3115 139.824 96.3408 139.934C96.3701 140.036 96.4215 140.128 96.4948 140.209C96.5681 140.282 96.6598 140.341 96.7698 140.385C96.8798 140.429 96.9971 140.451 97.1218 140.451H97.2318C97.4518 140.451 97.6388 140.374 97.7928 140.22C97.9468 140.058 98.0238 139.868 98.0238 139.648V137.613H98.7828V139.703C98.7975 139.915 98.8818 140.091 99.0358 140.231C99.1898 140.37 99.3731 140.44 99.5858 140.44H100.026C100.062 140.44 100.095 140.454 100.125 140.484C100.161 140.513 100.18 140.55 100.18 140.594V141.188C100.18 141.224 100.165 141.261 100.136 141.298C100.106 141.327 100.07 141.342 100.026 141.342H99.7178C99.4465 141.342 99.1971 141.283 98.9698 141.166C98.7425 141.041 98.5555 140.858 98.4088 140.616C98.2548 140.858 98.0605 141.041 97.8258 141.166C97.5985 141.283 97.3565 141.342 97.0998 141.342C96.8431 141.342 96.6048 141.287 96.3848 141.177C96.1721 141.059 96.0071 140.872 95.8898 140.616C95.7431 140.865 95.5561 141.048 95.3288 141.166C95.1015 141.283 94.8631 141.342 94.6138 141.342ZM97.0888 136.7H96.1538V135.765H97.0888V136.7ZM95.5818 136.7H94.6468V135.765H95.5818V136.7ZM96.2968 135.358H95.3618V134.423H96.2968V135.358ZM102.597 140.44H104.269V138.966C104.269 138.775 104.199 138.614 104.06 138.482C103.928 138.342 103.763 138.273 103.565 138.273H102.85C102.681 138.273 102.535 138.328 102.41 138.438C102.285 138.54 102.205 138.672 102.168 138.834L102.003 139.725C101.966 139.915 102.007 140.084 102.124 140.231C102.249 140.37 102.406 140.44 102.597 140.44ZM101.222 139.747L101.453 138.614C101.482 138.445 101.541 138.287 101.629 138.141C101.717 137.994 101.823 137.869 101.948 137.767C102.073 137.664 102.212 137.583 102.366 137.525C102.527 137.466 102.696 137.437 102.872 137.437H103.488C103.701 137.437 103.899 137.477 104.082 137.558C104.273 137.638 104.438 137.748 104.577 137.888C104.716 138.027 104.826 138.188 104.907 138.372C104.988 138.555 105.028 138.753 105.028 138.966V140.352C105.028 140.645 104.936 140.883 104.753 141.067C104.577 141.25 104.335 141.342 104.027 141.342H102.685C102.45 141.342 102.234 141.287 102.036 141.177C101.845 141.059 101.688 140.872 101.563 140.616C101.431 140.872 101.255 141.059 101.035 141.177C100.815 141.287 100.584 141.342 100.342 141.342H100.023C99.9203 141.342 99.8689 141.29 99.8689 141.188V140.594C99.8689 140.557 99.8836 140.524 99.9129 140.495C99.9423 140.458 99.9789 140.44 100.023 140.44H100.375C100.588 140.44 100.771 140.374 100.925 140.242C101.086 140.11 101.185 139.945 101.222 139.747Z" fill="#7E8AAB"/>
<path d="M164.586 43.9585H166.656V41.8885H164.586V43.9585ZM167.592 43.9585H169.662V41.8885H167.592V43.9585ZM166.062 46.6945H168.132V44.6245H166.062V46.6945ZM162.246 32.7805V35.9125C162.246 36.3325 162.39 36.6865 162.678 36.9745C162.966 37.2505 163.32 37.3885 163.74 37.3885H171.12C171.36 37.3885 171.564 37.3105 171.732 37.1545C171.9 36.9865 171.984 36.7825 171.984 36.5425V33.3025H173.964V36.5245C173.964 36.7645 174.048 36.9685 174.216 37.1365C174.384 37.3045 174.588 37.3885 174.828 37.3885H175.35C175.422 37.3885 175.482 37.4125 175.53 37.4605C175.59 37.5085 175.62 37.5685 175.62 37.6405V39.4765C175.62 39.5485 175.59 39.6085 175.53 39.6565C175.482 39.7045 175.422 39.7285 175.35 39.7285H175.17C174.738 39.7285 174.336 39.6385 173.964 39.4585C173.592 39.2665 173.268 39.0025 172.992 38.6665C172.692 39.0385 172.35 39.3085 171.966 39.4765C171.594 39.6445 171.192 39.7285 170.76 39.7285H163.92C163.416 39.7285 162.942 39.6325 162.498 39.4405C162.054 39.2485 161.664 38.9905 161.328 38.6665C161.004 38.3305 160.746 37.9405 160.554 37.4965C160.362 37.0525 160.266 36.5785 160.266 36.0745V32.7805H162.246ZM180.163 39.7285C179.731 39.7285 179.329 39.6445 178.957 39.4765C178.585 39.3085 178.255 39.0385 177.967 38.6665C177.679 39.0385 177.343 39.3085 176.959 39.4765C176.587 39.6445 176.185 39.7285 175.753 39.7285H175.357C175.297 39.7285 175.243 39.7045 175.195 39.6565C175.135 39.5965 175.105 39.5365 175.105 39.4765V37.6585C175.105 37.5865 175.135 37.5265 175.195 37.4785C175.243 37.4185 175.297 37.3885 175.357 37.3885H176.095C176.335 37.3765 176.539 37.2865 176.707 37.1185C176.875 36.9505 176.959 36.7465 176.959 36.5065V33.2845H178.939V36.5425C178.939 36.7585 179.029 36.9565 179.209 37.1365C179.389 37.3045 179.581 37.3885 179.785 37.3885H180.361C180.601 37.3885 180.811 37.3165 180.991 37.1725C181.171 37.0165 181.285 36.8185 181.333 36.5785L181.963 33.3205L183.907 33.6805L183.367 36.4165C183.307 36.6685 183.361 36.8965 183.529 37.1005C183.709 37.2925 183.925 37.3885 184.177 37.3885H184.681C184.921 37.3885 185.125 37.3105 185.293 37.1545C185.461 36.9865 185.545 36.7825 185.545 36.5425V32.8165H187.525V36.5245C187.525 36.7645 187.609 36.9685 187.777 37.1365C187.945 37.3045 188.149 37.3885 188.389 37.3885H189.109C189.181 37.3885 189.241 37.4185 189.289 37.4785C189.337 37.5265 189.361 37.5805 189.361 37.6405V39.4585C189.361 39.5305 189.337 39.5965 189.289 39.6565C189.253 39.7045 189.193 39.7285 189.109 39.7285H188.713C188.281 39.7285 187.879 39.6445 187.507 39.4765C187.135 39.3085 186.811 39.0385 186.535 38.6665C186.247 39.0385 185.911 39.3085 185.527 39.4765C185.143 39.6445 184.735 39.7285 184.303 39.7285C183.919 39.7285 183.541 39.6505 183.169 39.4945C182.797 39.3265 182.491 39.0505 182.251 38.6665C181.975 39.0505 181.657 39.3265 181.297 39.4945C180.937 39.6505 180.559 39.7285 180.163 39.7285ZM192.56 43.9585H194.63V41.8885H192.56V43.9585ZM195.566 43.9585H197.636V41.8885H195.566V43.9585ZM194.036 46.6945H196.106V44.6245H194.036V46.6945ZM188.852 37.6585C188.852 37.5985 188.882 37.5385 188.942 37.4785C188.99 37.4185 189.044 37.3885 189.104 37.3885H192.326C192.83 37.3885 193.328 37.3105 193.82 37.1545C194.312 36.9865 194.732 36.7165 195.08 36.3445L196.124 35.2285C196.184 35.1685 196.238 35.1145 196.286 35.0665C196.334 35.0185 196.364 34.9945 196.376 34.9945L192.596 33.8605C192.476 33.8245 192.368 33.8365 192.272 33.8965C192.188 33.9445 192.122 34.0225 192.074 34.1305L191.39 35.9305L189.662 35.4625L190.13 33.8065C190.238 33.4345 190.406 33.1165 190.634 32.8525C190.874 32.5885 191.138 32.3845 191.426 32.2405C191.726 32.0845 192.044 31.9945 192.38 31.9705C192.716 31.9345 193.04 31.9645 193.352 32.0605L200.516 34.2025L199.922 36.0565L199.076 35.8045C198.788 35.7445 198.554 35.7505 198.374 35.8225C198.206 35.8825 198.032 36.0025 197.852 36.1825L195.782 38.2345C195.266 38.7505 194.666 39.1285 193.982 39.3685C193.298 39.6085 192.596 39.7285 191.876 39.7285H189.104C188.936 39.7285 188.852 39.6445 188.852 39.4765V37.6585ZM204.768 33.2845V36.6505C204.768 36.8665 204.858 37.0465 205.038 37.1905C205.218 37.3225 205.416 37.3885 205.632 37.3885H206.946C207.114 37.3885 207.198 37.4725 207.198 37.6405V39.4765C207.198 39.6445 207.114 39.7285 206.946 39.7285H205.956C205.752 39.7285 205.536 39.6925 205.308 39.6205C205.08 39.5485 204.9 39.3985 204.768 39.1705V39.4945C204.768 39.9505 204.69 40.3825 204.534 40.7905C204.39 41.2105 204.186 41.5945 203.922 41.9425C203.658 42.2905 203.346 42.5905 202.986 42.8425C202.626 43.1065 202.23 43.3105 201.798 43.4545L199.314 44.3005L198.702 42.4465L201.294 41.6005C201.75 41.4565 202.11 41.1865 202.374 40.7905C202.65 40.4065 202.788 39.9805 202.788 39.5125V33.2845H204.768ZM207.413 41.8885H209.483V43.9585H207.413V41.8885ZM210.005 37.3885C210.245 37.3885 210.449 37.3045 210.617 37.1365C210.785 36.9565 210.869 36.7465 210.869 36.5065V32.7805H212.849V36.5065C212.849 36.9505 212.765 37.3705 212.597 37.7665C212.429 38.1505 212.195 38.4925 211.895 38.7925C211.607 39.0805 211.265 39.3085 210.869 39.4765C210.485 39.6445 210.071 39.7285 209.627 39.7285H206.945C206.873 39.7285 206.813 39.7045 206.765 39.6565C206.717 39.5965 206.693 39.5365 206.693 39.4765V37.6585C206.693 37.5865 206.717 37.5265 206.765 37.4785C206.813 37.4185 206.873 37.3885 206.945 37.3885H210.005ZM227.475 37.3885C227.715 37.3885 227.919 37.3045 228.087 37.1365C228.255 36.9685 228.339 36.7645 228.339 36.5245V32.7805H230.319V36.5245C230.319 36.9685 230.235 37.3885 230.067 37.7845C229.899 38.1685 229.665 38.5045 229.365 38.7925C229.077 39.0805 228.735 39.3085 228.339 39.4765C227.955 39.6445 227.541 39.7285 227.097 39.7285H220.257C219.753 39.7285 219.279 39.6325 218.835 39.4405C218.391 39.2485 218.007 38.9905 217.683 38.6665C217.359 38.3425 217.101 37.9585 216.909 37.5145C216.717 37.0705 216.621 36.5965 216.621 36.0925V32.7805H218.601V35.8945C218.601 36.3145 218.745 36.6685 219.033 36.9565C219.321 37.2445 219.675 37.3885 220.095 37.3885H227.475ZM222.435 43.9405H224.505V41.8705H222.435V43.9405ZM236.243 39.4765C236.243 39.6445 236.159 39.7285 235.991 39.7285H235.469C235.037 39.7285 234.629 39.6505 234.245 39.4945C233.861 39.3265 233.525 39.0985 233.237 38.8105C232.949 38.5225 232.721 38.1865 232.553 37.8025C232.385 37.4185 232.301 37.0105 232.301 36.5785V27.3985H234.281V36.5245C234.281 36.7645 234.365 36.9685 234.533 37.1365C234.701 37.3045 234.905 37.3885 235.145 37.3885H235.991C236.063 37.3885 236.123 37.4185 236.171 37.4785C236.219 37.5265 236.243 37.5865 236.243 37.6585V39.4765ZM238.72 28.2445H240.79V30.3145H238.72V28.2445ZM235.984 39.7285C235.816 39.7285 235.732 39.6445 235.732 39.4765V37.6585C235.732 37.5985 235.762 37.5385 235.822 37.4785C235.87 37.4185 235.924 37.3885 235.984 37.3885H239.206C239.71 37.3885 240.208 37.3105 240.7 37.1545C241.192 36.9865 241.612 36.7165 241.96 36.3445L243.004 35.2285C243.064 35.1685 243.118 35.1145 243.166 35.0665C243.214 35.0185 243.244 34.9945 243.256 34.9945L239.476 33.8605C239.356 33.8245 239.248 33.8365 239.152 33.8965C239.068 33.9445 239.002 34.0225 238.954 34.1305L238.27 35.9305L236.542 35.4625L237.01 33.8065C237.118 33.4345 237.286 33.1165 237.514 32.8525C237.742 32.5885 238.006 32.3845 238.306 32.2405C238.606 32.0845 238.924 31.9945 239.26 31.9705C239.596 31.9345 239.92 31.9645 240.232 32.0605L247.396 34.2025L246.802 36.0565L245.956 35.8045C245.752 35.7565 245.578 35.7445 245.434 35.7685C245.302 35.7925 245.176 35.8405 245.056 35.9125V36.5245C245.056 36.7645 245.14 36.9685 245.308 37.1365C245.476 37.3045 245.68 37.3885 245.92 37.3885H248.314C248.482 37.3885 248.566 37.4725 248.566 37.6405V39.4765C248.566 39.6445 248.482 39.7285 248.314 39.7285H246.244C245.524 39.7285 244.912 39.5245 244.408 39.1165C243.916 38.6965 243.574 38.1625 243.382 37.5145L242.662 38.2345C242.146 38.7505 241.546 39.1285 240.862 39.3685C240.178 39.6085 239.476 39.7285 238.756 39.7285H235.984ZM248.973 31.7005H251.043V29.6305H248.973V31.7005ZM251.979 31.7005H254.049V29.6305H251.979V31.7005ZM255.309 39.4765C255.309 39.5365 255.285 39.5965 255.237 39.6565C255.189 39.7045 255.129 39.7285 255.057 39.7285H253.689C253.305 39.7285 252.921 39.6265 252.537 39.4225C252.153 39.2065 251.895 38.9545 251.763 38.6665C251.679 38.8105 251.559 38.9485 251.403 39.0805C251.247 39.2005 251.073 39.3145 250.881 39.4225C250.701 39.5185 250.503 39.5965 250.287 39.6565C250.083 39.7045 249.879 39.7285 249.675 39.7285H248.307C248.139 39.7285 248.055 39.6445 248.055 39.4765V37.6585C248.055 37.5865 248.079 37.5265 248.127 37.4785C248.175 37.4185 248.235 37.3885 248.307 37.3885H249.855C250.095 37.3885 250.305 37.3165 250.485 37.1725C250.665 37.0285 250.779 36.8365 250.827 36.5965L251.493 33.3565L253.437 33.6985L252.897 36.4165C252.837 36.6685 252.891 36.8965 253.059 37.1005C253.227 37.2925 253.443 37.3885 253.707 37.3885H255.057C255.129 37.3885 255.189 37.4185 255.237 37.4785C255.285 37.5265 255.309 37.5865 255.309 37.6585V39.4765ZM258.117 37.3885C258.357 37.3885 258.561 37.3045 258.729 37.1365C258.897 36.9565 258.981 36.7465 258.981 36.5065V32.7805H260.961V36.5065C260.961 36.9505 260.877 37.3705 260.709 37.7665C260.541 38.1505 260.307 38.4925 260.007 38.7925C259.719 39.0805 259.377 39.3085 258.981 39.4765C258.597 39.6445 258.183 39.7285 257.739 39.7285H255.057C254.985 39.7285 254.925 39.7045 254.877 39.6565C254.829 39.5965 254.805 39.5365 254.805 39.4765V37.6585C254.805 37.5865 254.829 37.5265 254.877 37.4785C254.925 37.4185 254.985 37.3885 255.057 37.3885H258.117ZM258.891 31.1425H260.961V29.0725H258.891V31.1425ZM264.919 39.7285H262.939V27.3985H264.919V39.7285Z" fill="black"/>
<defs>
<filter id="filter0_d_3068_55616" x="0" y="0" width="425" height="258.346" filterUnits="userSpaceOnUse" color-interpolation-filters="sRGB">
<feFlood flood-opacity="0" result="BackgroundImageFix"/>
<feColorMatrix in="SourceAlpha" type="matrix" values="0 0 0 0 0 0 0 0 0 0 0 0 0 0 0 0 0 0 127 0" result="hardAlpha"/>
<feOffset dy="44"/>
<feGaussianBlur stdDeviation="22"/>
<feComposite in2="hardAlpha" operator="out"/>
<feColorMatrix type="matrix" values="0 0 0 0 0.458056 0 0 0 0 0.514533 0 0 0 0 0.566667 0 0 0 0.22 0"/>
<feBlend mode="normal" in2="BackgroundImageFix" result="effect1_dropShadow_3068_55616"/>
<feBlend mode="normal" in="SourceGraphic" in2="effect1_dropShadow_3068_55616" result="shape"/>
</filter>
</defs>
</svg>
