<svg width="1021" height="389" viewBox="0 0 1021 389" fill="none" xmlns="http://www.w3.org/2000/svg">
<path d="M0 0H1023V389C1023 389 706.105 389 506.179 389C306.253 389 0 389 0 389V0Z" fill="#8239F8"/>
<mask id="mask0_3042_34272" style="mask-type:alpha" maskUnits="userSpaceOnUse" x="0" y="0" width="1023" height="389">
<path d="M0 0H1023V389C1023 389 706.105 389 506.179 389C306.253 389 0 389 0 389V0Z" fill="#09C03C"/>
</mask>
<g mask="url(#mask0_3042_34272)">
<path d="M184.638 1431.55L477 527L119.524 1407.85L184.638 1431.55ZM-107.101 1277L477 527L-160.189 1232.47L-107.101 1277ZM-228.471 1164.19L477 527L-273 1111.1L-228.471 1164.19ZM32.0108 1367.03L477 527L-28.0109 1332.39L32.0108 1367.03ZM-403.85 884.476L477 527L-427.55 819.362L-403.85 884.476ZM-452.55 726.079L477 527L-464.576 657.85L-452.55 726.079ZM346.149 1468.58L477 527L277.921 1456.55L346.149 1468.58ZM-328.39 1032.01L477 527L-363.06 971.989L-328.39 1032.01ZM834.476 1407.85L477 527L769.362 1431.55L834.476 1407.85ZM1381.55 819.362L477 527L1357.85 884.476L1381.55 819.362ZM1317.03 971.989L477 527L1282.39 1032.01L1317.03 971.989ZM511.642 1477L477 527L442.358 1477H511.642ZM1227 1111.1L477 527L1182.47 1164.19L1227 1111.1ZM1418.58 657.85L477 527L1406.55 726.079L1418.58 657.85ZM676.079 1456.55L477 527L607.85 1468.58L676.079 1456.55ZM1114.19 1232.47L477 527L1061.1 1277L1114.19 1232.47ZM-473 561.642L477 527L-473 492.358V561.642ZM982.011 1332.39L477 527L921.989 1367.03L982.011 1332.39ZM-363.06 82.0108L476.973 527L-328.39 21.9891L-363.06 82.0108ZM1182.47 -110.189L477 527L1227 -57.1008L1182.47 -110.189ZM1061.1 -223L477 527L1114.19 -178.471L1061.1 -223ZM1282.39 21.9891L477 527L1317.03 82.0108L1282.39 21.9891ZM921.989 -313.06L477 527L982.011 -278.39L921.989 -313.06ZM769.362 -377.55L477 527L834.476 -353.85L769.362 -377.55ZM1357.85 169.524L477 527L1381.55 234.638L1357.85 169.524ZM1427 492.358L477 527L1427 561.642V492.358ZM1406.55 327.921L477 527L1418.58 396.149L1406.55 327.921ZM442.358 -423L477 527L511.642 -423H442.358ZM-273 -57.1008L477 527L-228.471 -110.189L-273 -57.1008ZM-160.189 -178.471L477 527L-107.101 -223L-160.189 -178.471ZM-28.0109 -278.39L477 527L32.0108 -313.06L-28.0109 -278.39ZM607.85 -414.576L477 527L676.079 -402.55L607.85 -414.576ZM-427.55 234.638L477 527L-403.85 169.524L-427.55 234.638ZM-464.576 396.149L477 527L-452.55 327.921L-464.576 396.149ZM277.921 -402.55L477 527L346.149 -414.576L277.921 -402.55ZM119.524 -353.85L477 527L184.638 -377.55L119.524 -353.85Z" fill="url(#paint0_radial_3042_34272)" fill-opacity="0.08"/>
</g>
<defs>
<radialGradient id="paint0_radial_3042_34272" cx="0" cy="0" r="1" gradientUnits="userSpaceOnUse" gradientTransform="translate(476.998 526.997) scale(638.816)">
<stop stop-color="white"/>
<stop offset="0.0001" stop-color="#DCDCDD"/>
<stop offset="1" stop-color="#F1F5F9"/>
</radialGradient>
</defs>
</svg>
