<svg width="50" height="53" viewBox="0 0 50 53" fill="none" xmlns="http://www.w3.org/2000/svg">
<path d="M45.8332 28.5693V19.7785C45.8332 8.78995 41.6665 4.39453 31.2498 4.39453H18.7498C8.33317 4.39453 4.1665 8.78995 4.1665 19.7785V32.9648C4.1665 43.9533 8.33317 48.3487 18.7498 48.3487H27.0832" stroke="white" stroke-width="3.5" stroke-linecap="round" stroke-linejoin="round"/>
<path d="M15.271 31.845L20.2293 25.0541C20.9377 24.0871 22.2502 23.9113 23.1668 24.6585L26.9794 27.8232C27.896 28.5704 29.2085 28.3946 29.9168 27.4496L34.7294 20.9004" stroke="white" stroke-width="3.5" stroke-linecap="round" stroke-linejoin="round"/>
<path d="M40.5832 34.7673L41.1666 36.02C41.4582 36.6354 42.1874 37.2068 42.8332 37.3386L43.6249 37.4705C45.9999 37.8881 46.5624 39.7341 44.854 41.5582L44.1249 42.3274C43.6457 42.8549 43.3749 43.8658 43.5207 44.5691L43.6249 45.0306C44.2707 48.0635 42.7499 49.2282 40.2499 47.6459L39.7082 47.3162C39.0624 46.9207 38.0207 46.9207 37.3749 47.3162L36.8332 47.6459C34.3123 49.2502 32.7915 48.0635 33.4582 45.0306L33.5623 44.5691C33.7082 43.8658 33.4374 42.8549 32.9582 42.3274L32.229 41.5582C30.5207 39.7341 31.0832 37.8881 33.4582 37.4705L34.2499 37.3386C34.8749 37.2288 35.6248 36.6354 35.9165 36.02L36.4998 34.7673C37.6248 32.3718 39.4582 32.3718 40.5832 34.7673Z" stroke="white" stroke-width="3.5" stroke-linecap="round" stroke-linejoin="round"/>
</svg>
