<svg width="62" height="70" viewBox="0 0 62 70" fill="none" xmlns="http://www.w3.org/2000/svg">
<path fill-rule="evenodd" clip-rule="evenodd" d="M28.4979 40.096C38.8028 50.3983 41.1405 38.4797 47.7017 45.0364C54.0272 51.3603 57.6655 52.6273 49.6485 60.6395C48.6446 61.4463 42.2664 71.1525 19.8514 48.7431C-2.56646 26.331 7.13388 19.9461 7.94086 18.9425C15.9746 10.9081 17.2225 14.5649 23.5479 20.8888C30.1063 27.4483 18.1931 29.7937 28.4979 40.096Z" fill="#8239F8"/>
<path d="M37.0771 6.58398C46.6381 7.64573 54.1917 15.1891 55.2638 24.75" stroke="#130F26" stroke-width="4" stroke-linecap="round" stroke-linejoin="round"/>
<path d="M37.0771 15.7363C41.6522 16.625 45.2276 20.2029 46.1188 24.778" stroke="#130F26" stroke-width="4" stroke-linecap="round" stroke-linejoin="round"/>
<path fill-rule="evenodd" clip-rule="evenodd" d="M28.4979 32.346C38.8028 42.6483 41.1406 30.7297 47.7017 37.2864C54.0272 43.6103 57.6655 44.8773 49.6485 52.8895C48.6446 53.6963 42.2664 63.4025 19.8514 40.9931C-2.56646 18.581 7.13388 12.1961 7.94086 11.1925C15.9746 3.15809 17.2225 6.81489 23.5479 13.1388C30.1063 19.6983 18.1931 22.0437 28.4979 32.346Z" stroke="#130F26" stroke-width="4" stroke-linecap="round" stroke-linejoin="round"/>
</svg>
