<svg width="129" height="163" viewBox="0 0 129 163" fill="none" xmlns="http://www.w3.org/2000/svg">
<path d="M3.01569 2.96582C17.1603 7.99467 40.7516 17.2803 40.4018 36.6723C40.2317 46.0974 41.3472 53.4248 33.9276 60.2825C18.8416 74.2262 2.07746 45.6899 15.2607 32.5277C41.67 6.16054 82.0016 17.0316 92.1515 51.2841C96.8461 67.1269 93.5 84.6982 82.5133 97.2617C77.3517 103.164 67.3063 108.995 61.2157 100.134C47.6616 80.4151 70.3296 56.9828 91.6918 61.2939C126.083 68.2344 130.676 113.324 114.278 138.279C114.181 138.426 101.262 156.428 100.121 152.787C97.867 145.596 106.49 123.419 105.912 130.933C105.339 138.376 99.8908 143.209 96.9588 149.257C95.596 152.068 121.621 158.724 126.347 160.394" stroke="#E71D36" stroke-width="5" stroke-linecap="round"/>
</svg>
