<svg width="1440" height="547" viewBox="0 0 1440 547" fill="none" xmlns="http://www.w3.org/2000/svg">
<mask id="mask0_3042_30564" style="mask-type:alpha" maskUnits="userSpaceOnUse" x="0" y="0" width="1440" height="547">
<path d="M0 0C0 0 438.714 0 720 0C1001.29 0 1440 0 1440 0V547C1440 547 1001.42 547 720 547C438.579 547 0 547 0 547V0Z" fill="#09C03C"/>
</mask>
<g mask="url(#mask0_3042_30564)">
<g opacity="0.4" filter="url(#filter0_f_3042_30564)">
<g filter="url(#filter1_f_3042_30564)">
<ellipse cx="1161.91" cy="130.881" rx="50" ry="89.7482" transform="rotate(62.0582 1161.91 130.881)" fill="#E71D36"/>
</g>
<g filter="url(#filter2_f_3042_30564)">
<ellipse cx="1102.52" cy="275.577" rx="50" ry="89.7482" transform="rotate(62.0582 1102.52 275.577)" fill="#FF9F1C"/>
</g>
<g filter="url(#filter3_f_3042_30564)">
<ellipse cx="931.012" cy="331.455" rx="50" ry="89.7482" transform="rotate(62.0582 931.012 331.455)" fill="#09C03C"/>
</g>
<g filter="url(#filter4_f_3042_30564)">
<ellipse cx="986.956" cy="482.897" rx="50" ry="89.7482" transform="rotate(62.0582 986.956 482.897)" fill="#3959F8"/>
</g>
</g>
<g opacity="0.4" filter="url(#filter5_f_3042_30564)">
<g filter="url(#filter6_f_3042_30564)">
<ellipse cx="256.784" cy="262.996" rx="50" ry="89.7482" transform="rotate(30 256.784 262.996)" fill="#E71D36"/>
</g>
<g filter="url(#filter7_f_3042_30564)">
<ellipse cx="283.255" cy="417.146" rx="50" ry="89.7482" transform="rotate(30 283.255 417.146)" fill="#FF9F1C"/>
</g>
<g filter="url(#filter8_f_3042_30564)">
<ellipse cx="167.557" cy="555.541" rx="50" ry="89.7482" transform="rotate(30 167.557 555.541)" fill="#09C03C"/>
</g>
<g filter="url(#filter9_f_3042_30564)">
<ellipse cx="295.351" cy="654.193" rx="50" ry="89.7482" transform="rotate(30 295.351 654.193)" fill="#3959F8"/>
</g>
</g>
<path d="M426.138 1490.24L720.5 579.5L360.578 1466.38L426.138 1490.24ZM132.403 1334.63L720.5 579.5L78.9518 1289.8L132.403 1334.63ZM10.2018 1221.05L720.5 579.5L-34.6316 1167.6L10.2018 1221.05ZM272.466 1425.28L720.5 579.5L212.034 1390.4L272.466 1425.28ZM-166.377 939.422L720.5 579.5L-190.239 873.862L-166.377 939.422ZM-215.41 779.941L720.5 579.5L-227.519 711.246L-215.41 779.941ZM588.754 1527.52L720.5 579.5L520.059 1515.41L588.754 1527.52ZM-90.4006 1087.97L720.5 579.5L-125.307 1027.53L-90.4006 1087.97ZM1080.42 1466.38L720.5 579.5L1014.86 1490.24L1080.42 1466.38ZM1631.24 873.862L720.5 579.5L1607.38 939.422L1631.24 873.862ZM1566.28 1027.53L720.5 579.5L1531.4 1087.97L1566.28 1027.53ZM755.38 1536L720.5 579.5L685.621 1536H755.38ZM1475.63 1167.6L720.5 579.5L1430.8 1221.05L1475.63 1167.6ZM1668.52 711.246L720.5 579.5L1656.41 779.941L1668.52 711.246ZM920.941 1515.41L720.5 579.5L852.246 1527.52L920.941 1515.41ZM1362.05 1289.8L720.5 579.5L1308.6 1334.63L1362.05 1289.8ZM-236 614.38L720.5 579.5L-236 544.621V614.38ZM1228.97 1390.4L720.5 579.5L1168.53 1425.28L1228.97 1390.4ZM-125.307 131.466L720.473 579.5L-90.4006 71.0338L-125.307 131.466ZM1430.8 -62.0482L720.5 579.5L1475.63 -8.59726L1430.8 -62.0482ZM1308.6 -175.632L720.5 579.5L1362.05 -130.798L1308.6 -175.632ZM1531.4 71.0338L720.5 579.5L1566.28 131.466L1531.4 71.0338ZM1168.53 -266.307L720.5 579.5L1228.97 -231.401L1168.53 -266.307ZM1014.86 -331.239L720.5 579.5L1080.42 -307.377L1014.86 -331.239ZM1607.38 219.578L720.5 579.5L1631.24 285.138L1607.38 219.578ZM1677 544.621L720.5 579.5L1677 614.38V544.621ZM1656.41 379.059L720.5 579.5L1668.52 447.754L1656.41 379.059ZM685.621 -377L720.5 579.5L755.38 -377H685.621ZM-34.6316 -8.59726L720.5 579.5L10.2018 -62.0482L-34.6316 -8.59726ZM78.9518 -130.798L720.5 579.5L132.403 -175.632L78.9518 -130.798ZM212.034 -231.401L720.5 579.5L272.466 -266.307L212.034 -231.401ZM852.246 -368.519L720.5 579.5L920.941 -356.41L852.246 -368.519ZM-190.239 285.138L720.5 579.5L-166.377 219.578L-190.239 285.138ZM-227.519 447.754L720.5 579.5L-215.41 379.059L-227.519 447.754ZM520.059 -356.41L720.5 579.5L588.754 -368.519L520.059 -356.41ZM360.578 -307.377L720.5 579.5L426.138 -331.239L360.578 -307.377Z" fill="url(#paint0_radial_3042_30564)" fill-opacity="0.02"/>
</g>
<defs>
<filter id="filter0_f_3042_30564" x="734.316" y="-44.1074" width="624.29" height="701.992" filterUnits="userSpaceOnUse" color-interpolation-filters="sRGB">
<feFlood flood-opacity="0" result="BackgroundImageFix"/>
<feBlend mode="normal" in="SourceGraphic" in2="BackgroundImageFix" result="shape"/>
<feGaussianBlur stdDeviation="57" result="effect1_foregroundBlur_3042_30564"/>
</filter>
<filter id="filter1_f_3042_30564" x="975.213" y="-34.1074" width="373.393" height="329.977" filterUnits="userSpaceOnUse" color-interpolation-filters="sRGB">
<feFlood flood-opacity="0" result="BackgroundImageFix"/>
<feBlend mode="normal" in="SourceGraphic" in2="BackgroundImageFix" result="shape"/>
<feGaussianBlur stdDeviation="52" result="effect1_foregroundBlur_3042_30564"/>
</filter>
<filter id="filter2_f_3042_30564" x="915.828" y="110.588" width="373.393" height="329.977" filterUnits="userSpaceOnUse" color-interpolation-filters="sRGB">
<feFlood flood-opacity="0" result="BackgroundImageFix"/>
<feBlend mode="normal" in="SourceGraphic" in2="BackgroundImageFix" result="shape"/>
<feGaussianBlur stdDeviation="52" result="effect1_foregroundBlur_3042_30564"/>
</filter>
<filter id="filter3_f_3042_30564" x="744.316" y="166.467" width="373.393" height="329.977" filterUnits="userSpaceOnUse" color-interpolation-filters="sRGB">
<feFlood flood-opacity="0" result="BackgroundImageFix"/>
<feBlend mode="normal" in="SourceGraphic" in2="BackgroundImageFix" result="shape"/>
<feGaussianBlur stdDeviation="52" result="effect1_foregroundBlur_3042_30564"/>
</filter>
<filter id="filter4_f_3042_30564" x="800.259" y="317.908" width="373.393" height="329.977" filterUnits="userSpaceOnUse" color-interpolation-filters="sRGB">
<feFlood flood-opacity="0" result="BackgroundImageFix"/>
<feBlend mode="normal" in="SourceGraphic" in2="BackgroundImageFix" result="shape"/>
<feGaussianBlur stdDeviation="52" result="effect1_foregroundBlur_3042_30564"/>
</filter>
<filter id="filter5_f_3042_30564" x="-8.80225" y="67.3281" width="480.513" height="782.533" filterUnits="userSpaceOnUse" color-interpolation-filters="sRGB">
<feFlood flood-opacity="0" result="BackgroundImageFix"/>
<feBlend mode="normal" in="SourceGraphic" in2="BackgroundImageFix" result="shape"/>
<feGaussianBlur stdDeviation="57" result="effect1_foregroundBlur_3042_30564"/>
</filter>
<filter id="filter6_f_3042_30564" x="90.4243" y="77.3281" width="332.719" height="371.336" filterUnits="userSpaceOnUse" color-interpolation-filters="sRGB">
<feFlood flood-opacity="0" result="BackgroundImageFix"/>
<feBlend mode="normal" in="SourceGraphic" in2="BackgroundImageFix" result="shape"/>
<feGaussianBlur stdDeviation="52" result="effect1_foregroundBlur_3042_30564"/>
</filter>
<filter id="filter7_f_3042_30564" x="116.896" y="231.479" width="332.719" height="371.336" filterUnits="userSpaceOnUse" color-interpolation-filters="sRGB">
<feFlood flood-opacity="0" result="BackgroundImageFix"/>
<feBlend mode="normal" in="SourceGraphic" in2="BackgroundImageFix" result="shape"/>
<feGaussianBlur stdDeviation="52" result="effect1_foregroundBlur_3042_30564"/>
</filter>
<filter id="filter8_f_3042_30564" x="1.19775" y="369.873" width="332.719" height="371.336" filterUnits="userSpaceOnUse" color-interpolation-filters="sRGB">
<feFlood flood-opacity="0" result="BackgroundImageFix"/>
<feBlend mode="normal" in="SourceGraphic" in2="BackgroundImageFix" result="shape"/>
<feGaussianBlur stdDeviation="52" result="effect1_foregroundBlur_3042_30564"/>
</filter>
<filter id="filter9_f_3042_30564" x="128.992" y="468.525" width="332.719" height="371.336" filterUnits="userSpaceOnUse" color-interpolation-filters="sRGB">
<feFlood flood-opacity="0" result="BackgroundImageFix"/>
<feBlend mode="normal" in="SourceGraphic" in2="BackgroundImageFix" result="shape"/>
<feGaussianBlur stdDeviation="52" result="effect1_foregroundBlur_3042_30564"/>
</filter>
<radialGradient id="paint0_radial_3042_30564" cx="0" cy="0" r="1" gradientUnits="userSpaceOnUse" gradientTransform="translate(720.498 579.497) scale(643.187)">
<stop stop-color="white"/>
<stop offset="1" stop-color="#1F599E"/>
</radialGradient>
</defs>
</svg>
