<svg width="37" height="51" viewBox="0 0 37 51" fill="none" xmlns="http://www.w3.org/2000/svg">
<path d="M1.74589 1.61918C8.17589 6.16568 14.6927 13.0129 18.5094 21.166C19.5473 23.383 24.6333 34.1583 21.3572 35.211C19.7882 35.7152 19.315 33.2854 19.4094 31.8932C19.5952 29.1526 19.9424 27.0432 21.0975 24.7995C22.8804 21.3363 26.1912 17.095 30.1559 20.0635C31.867 21.3446 32.2175 24.7354 31.8513 26.5588C31.4922 28.3465 30.7304 29.7041 29.9871 31.1993C29.383 32.4145 29.3946 32.1366 30.6331 32.5236C33.7416 33.4948 37.3483 38.6056 33.7033 40.8586C31.6583 42.1226 29.4165 41.7691 27.0826 41.5194C26.2059 41.4256 24.7025 41.3265 23.8617 40.7944C22.9462 40.2151 23.8625 39.4474 24.5124 39.5423C26.1283 39.7782 27.0273 40.509 27.6685 42.5045C28.2485 44.3092 27.9633 47.0425 26.4572 47.6523C25.6216 47.9906 25.9236 48.2114 26.6946 48.3908C27.2927 48.53 29.0359 48.4533 28.4858 48.6301C28.2921 48.6923 26.6833 49.1935 26.4913 48.9777C25.8075 48.2092 25.4093 46.9951 24.8602 46.1121" stroke="#7E8AAB" stroke-width="2" stroke-linecap="round"/>
</svg>
