<svg width="65" height="80" viewBox="0 0 65 80" fill="none" xmlns="http://www.w3.org/2000/svg">
<path fill-rule="evenodd" clip-rule="evenodd" d="M13.833 23.0117C13.833 12.4326 22.4358 3.83398 32.9997 3.83398C43.5635 3.83398 52.1663 12.4326 52.1663 23.0117C52.1663 33.5687 43.5635 42.1673 32.9997 42.1673C22.4358 42.1673 13.833 33.5687 13.833 23.0117ZM40.0308 24.9513C40.2344 24.7479 40.4934 24.4335 40.5489 24.3596C40.8449 23.9712 40.9929 23.4904 40.9929 23.0115C40.9929 22.4734 40.8264 21.9741 40.5119 21.5673C40.4861 21.5415 40.4356 21.4866 40.3698 21.415C40.2468 21.2811 40.0701 21.0888 39.9013 20.9201C38.3843 19.2928 34.4251 16.63 32.3531 15.8164C32.0386 15.6888 31.243 15.4096 30.8175 15.3911C30.4105 15.3911 30.022 15.4835 29.652 15.6684C29.1895 15.9273 28.8195 16.3342 28.6159 16.8149C28.4864 17.1478 28.2829 18.1463 28.2829 18.1648C28.0794 19.2558 27.9684 21.031 27.9684 22.9912C27.9684 24.8607 28.0794 26.5601 28.2459 27.6696C28.2505 27.6742 28.2664 27.7535 28.2912 27.8768C28.3663 28.2515 28.5229 29.0323 28.6899 29.3523C29.097 30.129 29.8925 30.6098 30.7435 30.6098H30.8175C31.3725 30.5913 32.5381 30.1105 32.5381 30.092C34.4992 29.2784 38.3658 26.745 39.9198 25.0622L40.0308 24.9513Z" fill="white"/>
<g filter="url(#filter0_b_3042_33604)">
<rect y="52" width="65" height="28" rx="5" fill="white" fill-opacity="0.2"/>
<path d="M18.7763 60.28L20.0883 60.024L20.3283 61.24C20.5309 62.2533 20.6323 63.272 20.6323 64.296V71.016H19.3043V64.28C19.3043 63.2667 19.2029 62.2907 19.0003 61.352L18.7763 60.28ZM22.87 60.28L24.182 60.024L24.422 61.24C24.6247 62.2533 24.726 63.272 24.726 64.296V71.016H23.398V64.28C23.398 63.2667 23.2967 62.2907 23.094 61.352L22.87 60.28ZM28.5798 71H27.0438V69.112H28.5798V71ZM27.0438 63.896H28.5798V65.784H27.0438V63.896ZM31.094 61.352L30.87 60.28L32.166 60.024L32.23 60.296C32.4007 60.9253 32.5393 61.8 32.646 62.92C32.678 63.176 32.79 63.3787 32.982 63.528C33.1847 63.6667 33.4087 63.736 33.654 63.736H35.894V60.088H37.286V63.688C37.286 64.1573 37.1367 64.5413 36.838 64.84C36.5393 65.1387 36.1553 65.288 35.686 65.288H33.894C33.67 65.288 33.4567 65.2507 33.254 65.176C33.0513 65.0907 32.87 64.952 32.71 64.76V71.016H31.398V64.28C31.398 63.2667 31.2967 62.2907 31.094 61.352ZM39.3856 60.264L40.6816 60.008C40.6816 60.0293 40.6976 60.1253 40.7296 60.296C40.7723 60.4667 40.8203 60.6853 40.8736 60.952C40.9376 61.2187 40.9963 61.5227 41.0496 61.864C41.103 62.1947 41.1456 62.536 41.1776 62.888C41.1883 63.0907 41.279 63.2827 41.4496 63.464C41.631 63.6347 41.8763 63.72 42.1856 63.72H42.4096C42.975 63.72 43.343 63.416 43.5136 62.808L44.0576 60.136L45.3536 60.392L44.9056 62.632C44.9056 62.6747 44.9056 62.7173 44.9056 62.76C44.9056 62.984 44.9856 63.2027 45.1456 63.416C45.3163 63.6187 45.5563 63.72 45.8656 63.72H47.2896V60.056H48.6176V63.672C48.6176 64.1413 48.4683 64.5253 48.1696 64.824C47.871 65.1227 47.487 65.272 47.0176 65.272H45.9456C45.2416 65.272 44.6656 64.968 44.2176 64.36C43.8016 64.968 43.215 65.272 42.4576 65.272C42.2443 65.272 42.0256 65.24 41.8016 65.176C41.5883 65.1013 41.4016 64.9573 41.2416 64.744V71.016H39.9136V64.264C39.9136 63.2507 39.8123 62.2747 39.6096 61.336L39.3856 60.264Z" fill="white"/>
</g>
<defs>
<filter id="filter0_b_3042_33604" x="-44" y="8" width="153" height="116" filterUnits="userSpaceOnUse" color-interpolation-filters="sRGB">
<feFlood flood-opacity="0" result="BackgroundImageFix"/>
<feGaussianBlur in="BackgroundImageFix" stdDeviation="22"/>
<feComposite in2="SourceAlpha" operator="in" result="effect1_backgroundBlur_3042_33604"/>
<feBlend mode="normal" in="SourceGraphic" in2="effect1_backgroundBlur_3042_33604" result="shape"/>
</filter>
</defs>
</svg>
