<svg width="24" height="24" viewBox="0 0 24 24" fill="none" xmlns="http://www.w3.org/2000/svg">
<path d="M11.3309 3.00377L11.6092 3.03442L11.8797 2.96265L15.8818 1.90104L18.0935 5.40136L18.243 5.63801L18.4678 5.80479L21.7931 8.27185L20.4354 12.1834L20.3436 12.4479L20.3534 12.7276L20.4978 16.8656L16.5931 18.2429L16.3291 18.336L16.1165 18.5181L12.9713 21.211L9.45996 19.0169L9.22257 18.8686L8.94766 18.8159L4.88128 18.0359L4.40738 13.9226L4.37534 13.6445L4.24516 13.3967L2.31962 9.73119L5.24005 6.79608L5.43748 6.59765L5.55007 6.34136L7.21533 2.5505L11.3309 3.00377Z" stroke="#E71D36" stroke-width="3"/>
</svg>
