<svg width="48" height="40" viewBox="0 0 48 40" fill="none" xmlns="http://www.w3.org/2000/svg">
<g opacity="0.3">
<path d="M6.68277 15.4992C6.24403 16.4652 7.04748 16.8073 8.34826 16.1845C9.74364 15.5163 13.0575 17.8835 14.2352 20.3432C14.8241 21.573 14.6925 21.7232 12.2565 22.8896C5.2796 26.2302 5.65 33.3792 12.9277 35.7671C23.2842 39.1812 28.9009 25.5314 20.5879 17.156C16.3558 12.9318 8.27948 11.9728 6.68277 15.4992Z" fill="#BDC5DD"/>
<path d="M38.0084 7.33255C34.0637 4.13362 25.8745 3.60653 23.9853 6.40083C23.456 7.17759 23.9323 7.44383 26.2734 7.71838C30.7795 8.26455 33.5764 11.3735 30.762 12.7211C22.8627 16.5034 26.2683 28.5949 34.8752 27.3229C45.1874 25.7868 46.9514 14.5342 38.0084 7.33255Z" fill="#BDC5DD"/>
</g>
</svg>
