<svg width="174" height="120" viewBox="0 0 174 120" fill="none" xmlns="http://www.w3.org/2000/svg">
<path d="M170.566 6.27604C155.556 6.47927 130.231 7.6685 124.314 26.1391C121.438 35.1163 118.021 41.6935 122.835 50.5761C132.624 68.637 157.689 47.024 149.449 30.316C132.944 -3.15414 91.2607 -5.85772 70.6158 23.2978C61.067 36.783 58.5731 54.4954 64.9259 69.9288C67.9105 77.1796 75.5415 85.936 84.1623 79.5101C103.347 65.21 89.4378 35.7236 67.8259 32.9219C33.0326 28.4113 14.1563 69.6167 21.6395 98.5246C21.6835 98.6944 28.1139 119.899 30.3669 116.82C34.8176 110.739 33.8 86.9656 31.9262 94.2652C30.0701 101.496 33.6708 107.827 34.4979 114.497C34.8823 117.597 8.10072 115.513 3.08846 115.571" stroke="#BFC4D5" stroke-width="5" stroke-linecap="round"/>
</svg>
