<svg width="65" height="21" viewBox="0 0 65 21" fill="none" xmlns="http://www.w3.org/2000/svg">
<path fill-rule="evenodd" clip-rule="evenodd" d="M62.2413 4.88736C62.8907 11.673 47.8945 19.9973 38.7876 17.9025C37.4369 17.5907 37.4695 17.5241 39.4561 16.6647C45.803 13.8847 49.96 10.3199 49.8651 7.73996C49.732 4.52344 45.8963 2.72594 42.1521 4.1039C35.9666 6.38629 32.3877 10.8729 33.528 14.892L33.8003 15.8494L32.0425 16.3679C27.5203 17.6941 21.8225 17.8469 19.4144 16.6667L18.8664 16.3981C24.9492 13.6946 36.1469 8.2458 32.1179 2.93445C27.136 -3.62658 12.2565 5.84652 14.9174 13.8652L15.2903 14.9955C15.2655 15.004 2.91541 18.0135 2.06422 12.9003C1.5606 9.89351 4.94747 5.16838 9.56564 2.38561L10.4712 1.84082C10.7098 1.69004 10.7902 1.39994 10.6642 1.1528C9.38859 -1.16134 1.72634 4.72256 0.502583 8.94242C-1.42176 15.5583 5.4176 19.5901 15.0205 17.4791L16.8371 17.0925L17.6691 17.7062C21.1887 20.3168 27.6358 20.7785 33.7744 18.8439C35.5565 18.2756 35.6144 18.2834 36.1058 18.7096C43.7272 25.3903 66.452 15.3751 64.6083 6.10924C64.2904 4.61464 61.9624 2.05248 62.2413 4.88736ZM47.5251 6.79905C46.6665 9.09705 42.9663 11.856 37.65 14.2142C35.5976 15.1238 35.523 15.1079 35.8268 13.7738C36.6178 10.2687 43.157 5.66749 46.7914 6.06875C47.7682 6.17679 47.7517 6.16862 47.5251 6.79905ZM30.8946 4.08562C30.6362 6.96613 23.3676 12.4252 17.4182 14.226L16.8158 14.4044L16.8063 13.2052C16.809 10.426 18.9919 7.19092 22.137 5.35451C25.8665 3.16606 31.055 2.41352 30.8946 4.08562Z" fill="#E71D36"/>
</svg>
