<svg width="109" height="109" viewBox="0 0 109 109" fill="none" xmlns="http://www.w3.org/2000/svg">
<path d="M66.9888 45.2831C66.9888 59.0049 55.8055 70.1287 42.01 70.1287C37.0946 70.1287 32.5108 68.7165 28.6463 66.2777L17.0312 70.1287L20.9029 58.5756C18.4511 54.7317 17.0312 50.1723 17.0312 45.2831C17.0312 31.5613 28.2146 20.4375 42.01 20.4375C55.8055 20.4375 66.9888 31.5613 66.9888 45.2831Z" fill="#3959F8"/>
<path opacity="0.2" d="M54.4986 72.1987C54.4986 82.49 62.8861 90.8328 73.2327 90.8328C76.9193 90.8328 80.3571 89.7737 83.2555 87.9446L91.9668 90.8328L89.063 82.168C90.9019 79.2851 91.9668 75.8656 91.9668 72.1987C91.9668 61.9073 83.5793 53.5645 73.2327 53.5645C62.8861 53.5645 54.4986 61.9073 54.4986 72.1987Z" fill="#3959F8"/>
<path d="M66.9888 45.2831C66.9888 59.0049 55.8055 70.1287 42.01 70.1287C37.0946 70.1287 32.5108 68.7165 28.6463 66.2777L17.0312 70.1287L20.9029 58.5756C18.4511 54.7317 17.0312 50.1723 17.0312 45.2831C17.0312 31.5613 28.2146 20.4375 42.01 20.4375C55.8055 20.4375 66.9888 31.5613 66.9888 45.2831Z" stroke="#050B28" stroke-width="4.5" stroke-linecap="round" stroke-linejoin="round"/>
<path d="M43.4165 70.0863C46.8333 79.7588 56.0971 86.6931 66.9892 86.6931C71.9046 86.6931 76.4886 85.2811 80.3529 82.8421L91.968 86.6931L88.0963 75.1399L88.6876 74.1643C90.7751 70.5341 91.968 66.3293 91.968 61.8475C91.968 48.1257 80.7846 37.002 66.9892 37.002L66.0528 37.0191L65.5827 37.0439" stroke="#050B28" stroke-width="4.5" stroke-linecap="round" stroke-linejoin="round"/>
</svg>
